<?xml version="1.0" encoding="UTF-8"?>
<svg width="11px" height="18px" viewBox="0 0 11 18" version="1.1" xmlns="http://www.w3.org/2000/svg" xmlns:xlink="http://www.w3.org/1999/xlink">
    <!-- Generator: Sketch 55.2 (78181) - https://sketchapp.com -->
    <title>Icons/back</title>
    <desc>Created with Sketch.</desc>
    <g id="4-Settings-+-Profile" stroke="none" stroke-width="1" fill="none" fill-rule="evenodd">
        <g id="Profile---unverified" transform="translate(-22.000000, -31.000000)" fill="#F8F9F9" stroke="#F8F9F9" stroke-width="0.8">
            <g id="icon/back" transform="translate(16.000000, 28.000000)">
                <path d="M15.657478,3.6 C15.7341157,3.6 15.8052783,3.6136851 15.8709677,3.64105572 C15.9366572,3.66842633 15.9968717,3.70948164 16.0516129,3.76422287 C16.1610954,3.87370534 16.2158358,4.00781934 16.2158358,4.16656891 C16.2158358,4.32531849 16.1610954,4.45943249 16.0516129,4.56891496 L8.56304985,12.057478 L15.9530792,19.4475073 C16.0625616,19.5569898 16.1173021,19.6883668 16.1173021,19.8416422 C16.1173021,19.9949177 16.0625616,20.1262947 15.9530792,20.2357771 C15.8435967,20.3452596 15.7094827,20.4 15.5507331,20.4 C15.3919836,20.4 15.2578696,20.3452596 15.1483871,20.2357771 L7.36422287,12.4516129 C7.25474041,12.3421304 7.2,12.2107535 7.2,12.057478 C7.2,11.9042026 7.25474041,11.7728256 7.36422287,11.6633431 L15.2633431,3.76422287 C15.3180843,3.70948164 15.3810358,3.66842633 15.4521994,3.64105572 C15.523363,3.6136851 15.5917885,3.6 15.657478,3.6 Z" id="back"></path>
            </g>
        </g>
    </g>
</svg>