<?xml version="1.0" encoding="UTF-8"?>
<svg width="16px" height="16px" viewBox="0 0 16 16" version="1.1" xmlns="http://www.w3.org/2000/svg" xmlns:xlink="http://www.w3.org/1999/xlink">
    <!-- Generator: Sketch 55.2 (78181) - https://sketchapp.com -->
    <title>error</title>
    <desc>Created with Sketch.</desc>
    <g id="Self-Onboarding-Portal-v1.2" stroke="none" stroke-width="1" fill="none" fill-rule="evenodd">
        <g id="1.1-Merchant-Portal-Login---New-Merchant---Error" transform="translate(-36.000000, -520.000000)" fill="#B41800" fill-rule="nonzero">
            <g id="Group-2" transform="translate(36.000000, 517.000000)">
                <g id="Icons/error" transform="translate(0.000000, 3.000000)">
                    <path d="M13.5651805,0 L2.43478686,0 C1.09216008,0 0,1.0921623 0,2.43479182 L0,10.0869714 C0,11.4295683 1.09216008,12.5217306 2.43478686,12.5217306 L9.94295124,12.5217306 L13.3196377,15.898424 C13.3857354,15.9645218 13.4747569,16 13.5652131,16 C13.6097239,16 13.6556368,15.9916522 13.6980932,15.9735544 C13.8281689,15.9199783 13.9130491,15.7926741 13.9130491,15.6521633 L13.9130491,12.4966872 C15.0914916,12.3276438 16,11.3112967 16,10.0869388 L16,2.43479182 C16,1.0921623 14.9077747,0 13.5651805,0 Z M7.66666667,10.6666667 C7.11532292,10.6666667 6.66666667,10.2180104 6.66666667,9.66666667 C6.66666667,9.11532292 7.11532292,8.66666667 7.66666667,8.66666667 C8.21801042,8.66666667 8.66666667,9.11532292 8.66666667,9.66666667 C8.66666667,10.2180104 8.21801042,10.6666667 7.66666667,10.6666667 Z M9.3307454,3.07200419 L9.04331648,6.36667331 C9.00530521,6.90601916 8.54582531,7.33333333 7.99966346,7.33333333 C7.44749984,7.33333333 6.98870764,6.90598791 6.95069637,6.36067328 L6.66926923,3.0760042 C6.6492633,2.79600311 6.74529176,2.52134579 6.93334748,2.319345 C7.12274736,2.11600045 7.38948265,2 7.66625216,2 L8.33310602,2 C8.60984428,2 8.87661083,2.11600045 9.06597944,2.319345 C9.25403517,2.52200204 9.35075133,2.79600311 9.3307454,3.07200419 Z" id="Shape"></path>
                </g>
            </g>
        </g>
    </g>
</svg>