<?xml version="1.0" standalone="no"?><!DOCTYPE svg PUBLIC "-//W3C//DTD SVG 1.1//EN" "http://www.w3.org/Graphics/SVG/1.1/DTD/svg11.dtd"><svg t="1564406102496" class="icon" viewBox="0 0 1024 1024" version="1.1" xmlns="http://www.w3.org/2000/svg" p-id="883" xmlns:xlink="http://www.w3.org/1999/xlink" width="200" height="200"><defs><style type="text/css"></style></defs><path d="M1010.5856 480.2048C1001.472 468.9408 785.5104 204.8 512 204.8S22.528 468.992 13.4144 480.2048L0 496.8448l13.4144 16.64c9.0624 11.264 225.0752 275.456 498.5856 275.456s489.472-264.192 498.5856-275.456L1024 496.8448l-13.4144-16.64zM512 735.744c-210.3296 0-391.424-182.1696-442.7264-238.9504 51.2-56.832 232.0384-238.9504 442.7264-238.9504 210.3296 0 391.424 182.2208 442.7264 238.9504-51.2 56.832-232.0384 238.9504-442.7264 238.9504z" p-id="884"></path><path d="M51.2 460.8h921.6v51.2H51.2z" p-id="885"></path></svg>