<?xml version="1.0" encoding="UTF-8"?>
<svg width="8px" height="15px" viewBox="0 0 8 15" version="1.1" xmlns="http://www.w3.org/2000/svg" xmlns:xlink="http://www.w3.org/1999/xlink">
    <!-- Generator: Sketch 55.2 (78181) - https://sketchapp.com -->
    <title>Icons/next</title>
    <desc>Created with Sketch.</desc>
    <g id="4-Settings-+-Profile" stroke="none" stroke-width="1" fill="none" fill-rule="evenodd">
        <g id="Settings" transform="translate(-328.000000, -113.000000)" fill="#929292">
            <g id="Group-9" transform="translate(0.000000, 92.000000)">
                <g id="Group-7">
                    <g id="Group-7-Copy" transform="translate(16.000000, 16.000000)">
                        <g id="Group-10" transform="translate(0.000000, 0.500000)">
                            <g id="Group-8" transform="translate(304.000000, 0.000000)">
                                <g id="Icons/next">
                                    <path d="M15.0478983,5 C15.1117631,5 15.1710652,5.01140425 15.2258065,5.0342131 C15.2805477,5.05702195 15.3307264,5.0912347 15.3763441,5.13685239 C15.4675795,5.22808778 15.5131965,5.33984945 15.5131965,5.47214076 C15.5131965,5.60443207 15.4675795,5.71619374 15.3763441,5.80742913 L9.13587488,12.0478983 L15.2942326,18.2062561 C15.385468,18.2974915 15.431085,18.4069723 15.431085,18.5347019 C15.431085,18.6624314 15.385468,18.7719122 15.2942326,18.8631476 C15.2029973,18.954383 15.0912356,19 14.9589443,19 C14.826653,19 14.7148913,18.954383 14.6236559,18.8631476 L8.13685239,12.3763441 C8.04561701,12.2851087 8,12.1756279 8,12.0478983 C8,11.9201688 8.04561701,11.810688 8.13685239,11.7194526 L14.7194526,5.13685239 C14.7650703,5.0912347 14.8175298,5.05702195 14.8768328,5.0342131 C14.9361358,5.01140425 14.9931571,5 15.0478983,5 Z" id="next" transform="translate(11.756598, 12.000000) scale(-1, 1) translate(-11.756598, -12.000000) "></path>
                                </g>
                            </g>
                        </g>
                    </g>
                </g>
            </g>
        </g>
    </g>
</svg>