<?xml version="1.0" standalone="no"?><!DOCTYPE svg PUBLIC "-//W3C//DTD SVG 1.1//EN" "http://www.w3.org/Graphics/SVG/1.1/DTD/svg11.dtd"><svg t="1564406078152" class="icon" viewBox="0 0 1024 1024" version="1.1" xmlns="http://www.w3.org/2000/svg" p-id="772" data-spm-anchor-id="a313x.7781069.0.i0" xmlns:xlink="http://www.w3.org/1999/xlink" width="200" height="200"><defs><style type="text/css"></style></defs><path d="M1002.496 480.9728l13.2608 16.384-13.2096 16.384c-8.9088 11.1104-221.44 271.0016-490.5472 271.0016-269.1072 0-481.6384-259.8912-490.5472-271.0016l-13.2096-16.384 13.2096-16.384C30.3616 469.9136 242.8928 210.0224 512 210.0224c269.1072 0 481.6384 259.8912 490.496 270.9504zM512 732.4672c207.36 0 385.1776-179.2 435.6096-235.1104-50.4832-55.808-228.6592-235.1104-435.6096-235.1104-207.3088 0-385.1776 179.2-435.6096 235.1104 50.4832 55.808 228.6592 235.1104 435.6096 235.1104z m0-433.664a198.7584 198.7584 0 0 1 198.5536 198.5536A198.7584 198.7584 0 0 1 512 695.9104a198.7584 198.7584 0 0 1-198.5536-198.5536A198.7584 198.7584 0 0 1 512 298.8544z m0 344.832a146.432 146.432 0 0 0 146.2784-146.2784A146.432 146.432 0 0 0 512 351.0784a146.432 146.432 0 0 0-146.2784 146.2784A146.432 146.432 0 0 0 512 643.6352z m0-219.392c40.3456 0 73.1648 32.768 73.1648 73.1136A73.216 73.216 0 0 1 512 570.5216a73.216 73.216 0 0 1-73.1648-73.1648c0-40.2944 32.8192-73.1136 73.1648-73.1136z m0 94.0032a20.9408 20.9408 0 1 0 0-41.8304 20.9408 20.9408 0 0 0 0 41.8304z" p-id="773"></path></svg>