<svg xmlns="http://www.w3.org/2000/svg" xmlns:xlink="http://www.w3.org/1999/xlink" width="106" height="32" viewBox="0 0 106 32">
  <defs>
    <polygon id="silot-logo-a" points="0 .337 7.68 .337 7.68 8.018 0 8.018"/>
    <polygon id="silot-logo-c" points="0 .564 7.68 .564 7.68 8.244 0 8.244"/>
    <polygon id="silot-logo-e" points="0 .79 7.68 .79 7.68 8.47 0 8.47"/>
    <polygon id="silot-logo-g" points=".304 .469 13.855 .469 13.855 19.633 .304 19.633"/>
  </defs>
  <g fill="none" fill-rule="evenodd">
    <path fill="#FFF" d="M19.2011294,16.3019294 C19.2011294,18.4224 17.4816,20.1419294 15.3611294,20.1419294 C13.2397176,20.1419294 11.5211294,18.4224 11.5211294,16.3019294 C11.5211294,14.1814588 13.2397176,12.4619294 15.3611294,12.4619294 C17.4816,12.4619294 19.2011294,14.1814588 19.2011294,16.3019294"/>
    <g transform="translate(0 .604)">
      <mask id="silot-logo-b" fill="#fff">
        <use xlink:href="#silot-logo-a"/>
      </mask>
      <path fill="#FFF" d="M3.83990588,0.337317647 C1.71943529,0.337317647 -9.41176471e-05,2.05684706 -9.41176471e-05,4.17731765 C-9.41176471e-05,6.29872941 1.71943529,8.01825882 3.83990588,8.01825882 C5.96131765,8.01825882 7.67990588,6.29872941 7.67990588,4.17731765 C7.67990588,2.05684706 5.96131765,0.337317647 3.83990588,0.337317647" mask="url(#silot-logo-b)" opacity=".5"/>
      <path fill="#FFF" d="M15.3610353.337317647C13.2396235.337317647 11.5210353 2.05684706 11.5210353 4.17731765 11.5210353 6.29872941 13.2396235 8.01825882 15.3610353 8.01825882 17.4815059 8.01825882 19.2010353 6.29872941 19.2010353 4.17731765 19.2010353 2.05684706 17.4815059.337317647 15.3610353.337317647M26.8812235 8.01788235C29.0026353 8.01788235 30.7212235 6.29835294 30.7212235 4.17694118 30.7212235 2.05647059 29.0026353.336941176 26.8812235.336941176 24.7607529.336941176 23.0412235 2.05647059 23.0412235 4.17694118 23.0412235 6.29835294 24.7607529 8.01788235 26.8812235 8.01788235" opacity=".5"/>
      <g transform="translate(0 11.294)">
        <mask id="silot-logo-d" fill="#fff">
          <use xlink:href="#silot-logo-c"/>
        </mask>
        <path fill="#FFF" d="M3.83990588,0.563858824 C1.71943529,0.563858824 -9.41176471e-05,2.28338824 -9.41176471e-05,4.40385882 C-9.41176471e-05,6.52432941 1.71943529,8.24385882 3.83990588,8.24385882 C5.96131765,8.24385882 7.67990588,6.52432941 7.67990588,4.40385882 C7.67990588,2.28338824 5.96131765,0.563858824 3.83990588,0.563858824" mask="url(#silot-logo-d)" opacity=".5"/>
      </g>
      <path fill="#FFF" d="M26.8812235,11.8579765 C24.7607529,11.8579765 23.0412235,13.5775059 23.0412235,15.6979765 C23.0412235,17.8184471 24.7607529,19.5379765 26.8812235,19.5379765 C29.0026353,19.5379765 30.7212235,17.8184471 30.7212235,15.6979765 C30.7212235,13.5775059 29.0026353,11.8579765 26.8812235,11.8579765" opacity=".5"/>
      <g transform="translate(0 22.588)">
        <mask id="silot-logo-f" fill="#fff">
          <use xlink:href="#silot-logo-e"/>
        </mask>
        <path fill="#FFF" d="M3.83990588,0.7904 C1.71943529,0.7904 -9.41176471e-05,2.50992941 -9.41176471e-05,4.6304 C-9.41176471e-05,6.75087059 1.71943529,8.4704 3.83990588,8.4704 C5.96131765,8.4704 7.67990588,6.75087059 7.67990588,4.6304 C7.67990588,2.50992941 5.96131765,0.7904 3.83990588,0.7904" mask="url(#silot-logo-f)" opacity=".5"/>
      </g>
      <path fill="#FFF" d="M15.3610353 23.3786353C13.2396235 23.3786353 11.5210353 25.0981647 11.5210353 27.2186353 11.5210353 29.3391059 13.2396235 31.0586353 15.3610353 31.0586353 17.4815059 31.0586353 19.2010353 29.3391059 19.2010353 27.2186353 19.2010353 25.0981647 17.4815059 23.3786353 15.3610353 23.3786353M26.8812235 23.3786353C24.7607529 23.3786353 23.0412235 25.0981647 23.0412235 27.2186353 23.0412235 29.3391059 24.7607529 31.0586353 26.8812235 31.0586353 29.0026353 31.0586353 30.7212235 29.3391059 30.7212235 27.2186353 30.7212235 25.0981647 29.0026353 23.3786353 26.8812235 23.3786353" opacity=".5"/>
    </g>
    <path fill="#FFF" d="M41.7920941 11.4586353C41.7920941 11.9555765 41.9144471 12.3809882 42.1610353 12.7358118 42.4057412 13.0915765 42.7266824 13.4012235 43.1238588 13.6675765 43.5210353 13.9339294 43.9784471 14.1833412 44.4989176 14.4129882 45.0193882 14.6435765 45.5520941 14.8741647 46.1008 15.1056941 46.8189176 15.4068706 47.4617412 15.7174588 48.0292706 16.0365176 48.5958588 16.3565176 49.0777412 16.7198118 49.4739765 17.1273412 49.8711529 17.5367529 50.1732706 18.0064 50.3812706 18.5381647 50.5902118 19.0708706 50.6937412 19.6920471 50.6937412 20.4016941 50.6937412 21.1828706 50.5422118 21.9056941 50.2410353 22.5711059 49.9370353 23.2365176 49.5125647 23.8125176 48.9638588 24.3009882 48.4160941 24.7894588 47.7600941 25.1706353 46.9930353 25.4454588 46.2288 25.7202824 45.3920941 25.8671059 44.4848 25.8849882 43.7666824 25.9019294 43.0626824 25.8266353 42.3728 25.6581647 41.6829176 25.4896941 41.0645647 25.2816941 40.5158588 25.0322824 39.7026824 24.6426353 39.1737412 24.2341647 38.9280941 23.8087529 38.6824471 23.3824 38.6824471 23.0096941 38.9280941 22.6906353 39.1360941 22.4421647 39.3770353 22.3273412 39.6518588 22.3442824 39.9257412 22.3621647 40.2222118 22.4685176 40.5440941 22.6642824 41.1106824 23.0191059 41.7309176 23.3249882 42.4010353 23.5819294 43.0711529 23.8398118 43.8043294 23.9687529 44.5977412 23.9687529 45.0899765 23.9687529 45.5671529 23.8793412 46.0302118 23.7014588 46.4923294 23.5245176 46.9045647 23.2854588 47.2631529 22.9833412 47.6217412 22.6821647 47.9106824 22.3179294 48.1271529 21.8915765 48.3445647 21.4661647 48.4537412 21.0049882 48.4537412 20.5080471 48.4537412 20.0111059 48.3502118 19.5631059 48.1422118 19.1640471 47.9332706 18.7649882 47.6603294 18.4101647 47.3196235 18.0995765 46.9798588 17.7889882 46.5968 17.5226353 46.1713882 17.3014588 45.7469176 17.0793412 45.3262118 16.8882824 44.9102118 16.7292235 44.1346824 16.4449882 43.4175059 16.1522824 42.7549176 15.8501647 42.0932706 15.5489882 41.5219765 15.2026353 41.0400941 14.8120471 40.5582118 14.4224 40.1845647 13.9565176 39.9210353 13.4153412 39.6546824 12.8741647 39.5238588 12.2134588 39.5238588 11.4322824 39.5238588 10.7226353 39.6744471 10.0788706 39.9775059 9.50192941 40.2796235 8.92592941 40.6805647 8.4384 41.1822118 8.0384 41.6829176 7.63934118 42.2598588 7.33816471 42.9111529 7.13392941 43.5633882 6.92969412 44.2476235 6.82804706 44.9666824 6.82804706 45.6848 6.82804706 46.3840941 6.92028235 47.0655059 7.10663529 47.7450353 7.29298824 48.3257412 7.52451765 48.8085647 7.79934118 49.2904471 8.07416471 49.6349176 8.38475294 49.8438588 8.73016471 50.0499765 9.07651765 50.0499765 9.41816471 49.8438588 9.75510588 49.6725647 10.0214588 49.4184471 10.1504 49.0777412 10.1409882 48.7379765 10.1325176 48.4255059 10.0299294 48.1422118 9.83510588 47.7638588 9.58663529 47.2913882 9.3344 46.7248 9.07651765 46.1582118 8.81957647 45.5718588 8.70004706 44.9666824 8.71698824 44.0029176 8.71698824 43.2320941 8.97487059 42.6560941 9.48875294 42.0800941 10.0045176 41.7920941 10.6595765 41.7920941 11.4586353M56.0522353 24.8657882C56.0522353 25.5443765 55.6738824 25.8841412 54.9171765 25.8841412 54.1990588 25.8841412 53.8395294 25.5528471 53.8395294 24.8921412L53.8395294 7.71755294C53.8395294 7.05684706 54.1990588 6.72555294 54.9171765 6.72555294 55.2955294 6.72555294 55.5788235 6.80178824 55.768 6.95331765 55.9562353 7.10484706 56.0522353 7.35990588 56.0522353 7.71755294L56.0522353 24.8657882zM69.2351059 23.7132235C69.5560471 23.7132235 69.8158118 23.7894588 70.0144 23.9409882 70.2129882 24.0934588 70.3127529 24.3391059 70.3127529 24.6779294 70.3127529 24.9998118 70.2073412 25.2369882 69.9993412 25.3885176 69.7922824 25.5400471 69.5362824 25.6162824 69.2351059 25.6162824L62.1471059 25.6162824C61.6746353 25.6162824 61.3104 25.5005176 61.0562824 25.2680471 60.8002824 25.0355765 60.6722824 24.7231059 60.6722824 24.3296941L60.6722824 7.77910588C60.6722824 7.45722353 60.7767529 7.21251765 60.9847529 7.04216471 61.1927529 6.87181176 61.4572235 6.78804706 61.7781647 6.78804706 62.5348706 6.78804706 62.9122824 7.1184 62.9122824 7.77910588L62.9122824 23.7132235 69.2351059 23.7132235zM81.2837647 23.9810824C82.3416471 23.9810824 83.2677647 23.7956706 84.0621176 23.4257882 84.8555294 23.0559059 85.5171765 22.5363765 86.0470588 21.8662588 86.5750588 21.1970824 86.9722353 20.3952 87.2367059 19.4615529 87.5011765 18.5279059 87.6338824 17.4963765 87.6338824 16.3688471 87.6338824 15.3467294 87.5105882 14.3688471 87.2649412 13.4342588 87.0202353 12.5006118 86.6362353 11.6723765 86.1176471 10.9495529 85.5971765 10.2267294 84.9364706 9.64978824 84.1327059 9.21778824 83.3298824 8.78672941 82.3792941 8.57025882 81.2837647 8.57025882 80.1872941 8.57025882 79.2376471 8.78672941 78.4348235 9.21778824 77.6310588 9.64978824 76.9694118 10.2229647 76.4498824 10.9363765 75.9303529 11.6497882 75.5463529 12.4695529 75.3025882 13.3947294 75.056 14.3199059 74.9336471 15.2846118 74.9336471 16.2888471 74.9336471 17.2761412 75.056 18.2276706 75.3025882 19.1434353 75.5463529 20.0601412 75.9256471 20.8799059 76.4357647 21.6017882 76.9458824 22.3246118 77.6028235 22.9024941 78.4056471 23.3335529 79.2094118 23.7655529 80.1675294 23.9810824 81.2837647 23.9810824M81.2837647 6.71990588C82.7190588 6.71990588 83.9717647 6.97590588 85.04 7.48696471 86.1072941 7.99802353 86.9957647 8.68884706 87.7044706 9.56225882 88.4131765 10.4337882 88.9477647 11.4512 89.3063529 12.6144941 89.6649412 13.7777882 89.8456471 15.0022588 89.8456471 16.2888471 89.8456471 17.5933176 89.6705882 18.8224941 89.3204706 19.9763765 88.9712941 21.1312 88.4414118 22.1486118 87.7336471 23.0295529 87.0249412 23.9114353 86.1355294 24.6069647 85.0682353 25.1180235 84.0009412 25.6281412 82.7388235 25.8841412 81.2837647 25.8841412 79.8663529 25.8841412 78.6192941 25.6281412 77.5407059 25.1180235 76.464 24.6069647 75.5708235 23.9152 74.8621176 23.0427294 74.1534118 22.1702588 73.6188235 21.1528471 73.2611765 19.9895529 72.9016471 18.8262588 72.7218824 17.5933176 72.7218824 16.2888471 72.7218824 15.0022588 72.8922353 13.7777882 73.232 12.6144941 73.5727059 11.4512 74.0969412 10.4337882 74.8056471 9.56225882 75.5143529 8.68884706 76.4075294 7.99802353 77.4851765 7.48696471 78.5618824 6.97590588 79.8277647 6.71990588 81.2837647 6.71990588"/>
    <g transform="translate(92.235 6.25)">
      <mask id="silot-logo-h" fill="#fff">
        <use xlink:href="#silot-logo-g"/>
      </mask>
      <path fill="#FFF" d="M8.18550588,2.39934118 L8.18550588,18.5612235 C8.18550588,18.9188706 8.10927059,19.1871059 7.95868235,19.3649882 C7.80715294,19.5438118 7.51350588,19.6332235 7.07962353,19.6332235 C6.64385882,19.6332235 6.35209412,19.5391059 6.20056471,19.3518118 C6.04809412,19.1645176 5.97374118,18.9009882 5.97374118,18.5612235 L5.97374118,2.39934118 L1.40903529,2.39934118 C1.06832941,2.39934118 0.799152941,2.32781176 0.600564706,2.18475294 C0.402917647,2.04169412 0.304094118,1.79134118 0.304094118,1.43463529 C0.304094118,1.09487059 0.406682353,0.849223529 0.615623529,0.696752941 C0.823623529,0.545223529 1.08715294,0.468988235 1.40903529,0.468988235 L12.7502118,0.468988235 C13.0702118,0.468988235 13.3356235,0.554635294 13.5426824,0.724047059 C13.7506824,0.893458824 13.8551529,1.13910588 13.8551529,1.46098824 C13.8551529,1.81863529 13.7365647,2.06428235 13.5003294,2.19792941 C13.2640941,2.33157647 13.0137412,2.39934118 12.7502118,2.39934118 L8.18550588,2.39934118 Z" mask="url(#silot-logo-h)"/>
    </g>
  </g>
</svg>
