<?xml version="1.0" encoding="UTF-8"?>
<svg width="12px" height="12px" viewBox="0 0 12 12" version="1.1" xmlns="http://www.w3.org/2000/svg" xmlns:xlink="http://www.w3.org/1999/xlink">
    <!-- Generator: Sketch 55.2 (78181) - https://sketchapp.com -->
    <title>Icons/success</title>
    <desc>Created with Sketch.</desc>
    <g id="Self-Onboarding-Portal-v1.2" stroke="none" stroke-width="1" fill="none" fill-rule="evenodd">
        <g id="Set-Password---active-(typing)" transform="translate(-38.000000, -329.000000)" fill="#04A777" fill-rule="nonzero">
            <g id="Group-3" transform="translate(38.000000, 305.000000)">
                <g id="Group-2" transform="translate(0.000000, 21.000000)">
                    <g id="Icons/success" transform="translate(0.000000, 3.000000)">
                        <path d="M5.99988,0 C9.30837,0 12,2.6916 12,6 C12,9.3084 9.30837,12 5.99988,12 C2.69139,12 0,9.3084 0,6 C0,2.6916 2.69139,0 5.99988,0 Z M8.29151382,4.1108862 L5.02781433,7.0863944 L3.70851783,5.88379581 C3.54639458,5.73615433 3.28376315,5.73606777 3.1216399,5.88388237 C2.95945337,6.03175468 2.95945337,6.27123568 3.1216399,6.41905028 L4.73442284,7.88926168 C4.81546864,7.96306799 4.92164149,8 5.02781433,8 C5.13398718,8 5.24044484,7.96306799 5.32145899,7.88914626 C5.32171216,7.88882888 5.32190204,7.88851149 5.32231344,7.8881364 L8.8783601,4.64596755 C9.04054663,4.49823951 9.04054663,4.25858539 8.8783601,4.11085734 C8.7162685,3.96304274 8.45344719,3.96304274 8.29151382,4.1108862 Z" id="Combined-Shape"></path>
                    </g>
                </g>
            </g>
        </g>
    </g>
</svg>