<?xml version="1.0" standalone="no"?><!DOCTYPE svg PUBLIC "-//W3C//DTD SVG 1.1//EN" "http://www.w3.org/Graphics/SVG/1.1/DTD/svg11.dtd"><svg t="1566901451848" class="icon" viewBox="0 0 1024 1024" version="1.1" xmlns="http://www.w3.org/2000/svg" p-id="4358" xmlns:xlink="http://www.w3.org/1999/xlink" width="200" height="200"><defs><style type="text/css"></style></defs><path d="M769.8688 450.3808l-29.7728-122.9312a6.8352 6.8352 0 0 0-6.4-5.0688H303.616a6.8352 6.8352 0 0 0-6.4 5.0688l-30.464 122.9312v57.856c0 3.6096 2.8416 7.2448 7.0912 7.2448h17.7152a7.168 7.168 0 0 1 7.0912 7.2192v163.4304c0 3.6352 2.816 7.2448 7.0912 7.2448h41.8048a5.632 5.632 0 0 0 5.6832-5.7856v-164.1728a5.632 5.632 0 0 1 5.632-5.7856h109.8496a5.632 5.632 0 0 1 5.6832 5.7856v163.456a5.632 5.632 0 0 0 5.6576 5.76h252.288a7.168 7.168 0 0 0 7.0656-7.2192V521.984a7.168 7.168 0 0 1 7.0912-7.2448h17.7152a7.168 7.168 0 0 0 7.0912-7.2192V451.84c-1.408 0-1.408-0.7424-1.408-1.4592z m-91.4176 198.8864h-159.4368a5.632 5.632 0 0 1-5.6832-5.7856v-120.064a5.632 5.632 0 0 1 5.6832-5.7856h160.1536a5.632 5.632 0 0 1 5.6576 5.7856v120.064c-0.7168 2.8928-2.816 5.7856-6.4 5.7856zM260.5056 762.6752a33.8944 33.8944 0 0 1 0 47.9488l-77.7728 77.7728 43.8528 43.8528a33.8944 33.8944 0 0 1-23.9616 57.9072h-135.68a33.92 33.92 0 0 1-33.92-33.92v-135.68a33.92 33.92 0 0 1 57.9072-23.9616l43.8528 43.8528 77.7728-77.7728a33.8944 33.8944 0 0 1 47.9488 0z m542.72 0l77.7472 77.7728 43.8528-43.8528a33.92 33.92 0 1 1 57.9072 23.9872v135.6544c0 18.7392-15.1808 33.92-33.92 33.92h-135.68a33.92 33.92 0 0 1-23.9616-57.9072l43.8528-43.8528-77.7728-77.7728a33.8944 33.8944 0 1 1 47.9488-47.9488zM202.5984 25.6a33.92 33.92 0 0 1 23.9616 57.9072L182.7328 127.36l77.7728 77.7728a33.8944 33.8944 0 1 1-47.9488 47.9488L134.784 175.3088 90.9312 219.1616a33.92 33.92 0 0 1-57.9072-23.9616v-135.68C33.024 41.088 48.1792 25.6 66.944 25.6h135.68z m746.1888 0c18.7392 0 33.92 15.1808 33.92 33.92v135.68a33.92 33.92 0 0 1-57.9072 23.9616l-43.8528-43.8528-77.7728 77.7728a33.8944 33.8944 0 1 1-47.9488-47.9488l77.7728-77.7728-43.8528-43.8528A33.8944 33.8944 0 0 1 813.1328 25.6h135.68z" p-id="4359" fill="#33B37C"></path></svg>