<?xml version="1.0" standalone="no"?><!DOCTYPE svg PUBLIC "-//W3C//DTD SVG 1.1//EN" "http://www.w3.org/Graphics/SVG/1.1/DTD/svg11.dtd"><svg t="1566901539871" class="icon" viewBox="0 0 1024 1024" version="1.1" xmlns="http://www.w3.org/2000/svg" p-id="4700" xmlns:xlink="http://www.w3.org/1999/xlink" width="200" height="200"><defs><style type="text/css"></style></defs><path d="M1009.3568 529.9456h2.7136l-102.4512-193.9968a152.6784 152.6784 0 0 0-79.0016-66.7648 147.6608 147.6608 0 0 0-272.7168 2.0736 101.1968 101.1968 0 0 0-90.9312 0 147.5584 147.5584 0 0 0-273.4592 0 152.2688 152.2688 0 0 0-74.496 65.408l-79.872 145.664a228.5568 228.5568 0 1 0 417.9712 127.8976c0.0256-15.36-1.4848-30.6944-4.48-45.7472a225.8176 225.8176 0 0 0-7.8592-27.7248 74.7264 74.7264 0 0 1 134.3744 0 227.2 227.2 0 0 0-7.8592 27.8272 231.5776 231.5776 0 0 0-4.5056 45.7472c0 6.9888 0.3584 13.9776 1.0496 20.9152a228.5568 228.5568 0 1 0 441.5232-101.2992zM228.48 763.52a153.3184 153.3184 0 1 1 147.456-197.1456c4.3008 14.208 6.5024 28.9792 6.4768 43.8528a153.728 153.728 0 0 1-153.9328 153.2928z m566.9632 0a153.728 153.728 0 0 1-147.456-197.376 154.5728 154.5728 0 0 1 147.456-109.44 152.7808 152.7808 0 0 1 111.5648 48.128h0.6144l7.9616 9.728a153.216 153.216 0 0 1-120.1408 248.96z" p-id="4701" fill="#B9C1C5"></path></svg>