<?xml version="1.0" standalone="no"?><!DOCTYPE svg PUBLIC "-//W3C//DTD SVG 1.1//EN" "http://www.w3.org/Graphics/SVG/1.1/DTD/svg11.dtd"><svg t="1566901344269" class="icon" viewBox="0 0 1024 1024" version="1.1" xmlns="http://www.w3.org/2000/svg" p-id="4148" xmlns:xlink="http://www.w3.org/1999/xlink" width="200" height="200"><defs><style type="text/css"></style></defs><path d="M607.744 568.832V998.4h-214.784V568.832h214.784z m-290.56 139.008V998.4H102.4V707.84h214.784z m581.12-315.8528V998.4h-214.7584V391.9872h214.784z m-695.808 0v29.9776c7.68 1.3312 14.5152 3.584 20.5568 6.8352 6.0416 3.2256 10.9568 7.04 14.7968 11.4176 3.84 4.352 6.912 8.832 9.216 13.312 2.2784 4.5312 3.968 9.216 5.0432 14.08l-34.048 9.4208a30.72 30.72 0 0 0-2.5088-8.0128 37.0432 37.0432 0 0 0-5.2736-8.0384 24.1408 24.1408 0 0 0-9.6768-6.656 37.5296 37.5296 0 0 0-14.1824-2.5088c-8.4736 0-15.1552 2.048-20.0192 6.1696a19.0208 19.0208 0 0 0-7.296 15.0784c0 4.3264 1.6128 8.1152 4.7872 11.3408 3.2 3.2256 7.9616 5.504 14.2848 6.8352l25.1392 5.7088c16.8448 3.6096 29.5168 10.0864 37.9904 19.3536 8.448 9.2928 12.6976 20.3264 12.6976 33.0496 0 13.0048-4.5824 24.4992-13.7216 34.5088-9.1392 9.984-21.76 16.2304-37.7856 18.688v29.4656H174.2336v-29.184a77.6192 77.6192 0 0 1-24.9856-7.552 61.2096 61.2096 0 0 1-18.2528-13.6192 66.5088 66.5088 0 0 1-11.008-16.64 57.088 57.088 0 0 1-4.9408-17.792l34.304-8.2176c0.9216 9.3696 4.6336 17.2032 11.1616 23.4752 6.5536 6.2976 15.7696 9.4208 27.648 9.4208 8.832 0 15.7952-1.8688 20.8896-5.632a17.5616 17.5616 0 0 0 7.6544-14.7968 15.9232 15.9232 0 0 0-5.2736-12.032c-3.5328-3.3024-8.704-5.7088-15.5648-7.2192l-25.3952-5.4272c-15.1552-3.2768-27.0336-9.3696-35.6352-18.304a45.4656 45.4656 0 0 1-12.9024-32.768c0-14.08 4.9408-26.112 14.7968-36.096 9.8816-10.0096 22.3744-16.2048 37.504-18.5856v-29.056H202.496zM514.0992 25.6v55.2448c13.9264 2.432 26.368 6.656 37.376 12.5952 10.9568 5.9392 19.9424 12.9536 26.88 20.992 6.9888 8.0896 12.544 16.2816 16.7424 24.576 4.1728 8.32 7.2448 16.9472 9.216 25.9072l-61.952 17.3568a57.1136 57.1136 0 0 0-4.5312-14.7712 68.3264 68.3264 0 0 0-9.6-14.7968 43.8784 43.8784 0 0 0-17.5616-12.2112 67.456 67.456 0 0 0-25.8048-4.6592c-15.4112 0-27.5456 3.7888-36.3776 11.3664-8.8576 7.5776-13.2864 16.8192-13.2864 27.7504 0 7.9872 2.9184 14.9504 8.7296 20.8896 5.8112 5.9648 14.464 10.1632 25.9328 12.5952l45.7216 10.496c30.6432 6.7072 53.6576 18.5856 69.0688 35.712 15.3856 17.1008 23.0912 37.376 23.0912 60.8512 0 23.9616-8.32 45.1328-24.9344 63.5648-16.64 18.4064-39.5264 29.9008-68.7104 34.4576v54.272h-51.3792v-53.76a139.776 139.776 0 0 1-45.4656-13.952c-13.5936-7.0144-24.6528-15.36-33.1776-25.0624a122.6752 122.6752 0 0 1-20.0192-30.6688 106.24 106.24 0 0 1-8.96-32.768l62.4128-15.1552c1.6384 17.28 8.3968 31.7184 20.2752 43.264 11.8784 11.5712 28.6464 17.3568 50.2528 17.3568 16.0768 0 28.7232-3.456 37.9904-10.368 9.2416-6.912 13.8752-16.0256 13.8752-27.264 0-8.6272-3.2-16-9.5744-22.1184-6.4-6.1184-15.8208-10.5472-28.2624-13.312l-46.208-10.0352c-27.5456-6.0416-49.1264-17.28-64.768-33.7408-15.6672-16.4608-23.4752-36.5824-23.4752-60.3648 0-25.9072 8.96-48.0768 26.9056-66.4832 17.9456-18.432 40.704-29.824 68.1984-34.2272V25.6h51.3792z m296.576 88.448v26.8288c6.7328 1.1776 12.7232 3.2256 17.9968 6.1184 5.2992 2.8672 9.6256 6.272 12.9792 10.1888 3.328 3.9168 6.0416 7.9104 8.0384 11.9296 2.0224 4.0448 3.5072 8.2432 4.4544 12.5952l-29.8496 8.448a27.904 27.904 0 0 0-2.176-7.1936 33.2288 33.2288 0 0 0-4.608-7.168 21.1456 21.1456 0 0 0-8.4736-5.9648 32.256 32.256 0 0 0-12.4416-2.2528c-7.424 0-13.2608 1.8432-17.5104 5.5296a17.152 17.152 0 0 0-6.4 13.4656c0 3.8912 1.408 7.2704 4.1984 10.1632 2.816 2.8928 6.9632 4.9152 12.4928 6.1184l22.016 5.0944c14.7712 3.2512 25.856 9.0112 33.28 17.3312 7.424 8.32 11.1104 18.176 11.1104 29.568 0 11.6224-3.9936 21.9136-12.0064 30.8736-8.0128 8.9344-19.0464 14.5152-33.1008 16.7424v26.368h-24.7296v-26.1376a66.9184 66.9184 0 0 1-21.9136-6.7584 53.7344 53.7344 0 0 1-15.9744-12.1856 59.648 59.648 0 0 1-9.6512-14.8992 51.9424 51.9424 0 0 1-4.3264-15.8976l30.08-7.3728c0.768 8.3968 4.0448 15.3856 9.7792 21.0176 5.7088 5.632 13.7728 8.448 24.192 8.448 7.7312 0 13.824-1.6896 18.304-5.0688a15.8208 15.8208 0 0 0 6.6816-13.2352 14.3872 14.3872 0 0 0-4.608-10.752c-3.072-2.9696-7.6288-5.12-13.6192-6.4512l-22.272-4.864c-13.2608-2.944-23.6544-8.3968-31.1808-16.384a41.1648 41.1648 0 0 1-11.3152-29.3376c0-12.5952 4.3264-23.3472 12.9792-32.3072 8.6272-8.9344 19.584-14.464 32.8448-16.6144V114.048h24.7296z" p-id="4149" fill="#DF7F00"></path></svg>