<?xml version="1.0" standalone="no"?><!DOCTYPE svg PUBLIC "-//W3C//DTD SVG 1.1//EN" "http://www.w3.org/Graphics/SVG/1.1/DTD/svg11.dtd"><svg t="1566901644546" class="icon" viewBox="0 0 1024 1024" version="1.1" xmlns="http://www.w3.org/2000/svg" p-id="4956" xmlns:xlink="http://www.w3.org/1999/xlink" width="200" height="200"><defs><style type="text/css"></style></defs><path d="M763.9552 534.8352l1.2544 7.0912c22.8352 138.624-59.3664 232.1408-190.4128 228.992-24.704 57.4464-34.3808 107.4176-37.632 139.3152a80.896 80.896 0 0 1 44.0832 47.872c23.6544 1.0496 43.008 17.024 48.384 38.272 9.6512-6.3744 19.328-9.5488 31.1552-9.5488 30.08 0 53.7344 23.3728 54.784 49.9712H341.6064c-1.0752-4.2496-1.0752-7.424-1.0752-11.6992 0-38.272 31.1808-69.12 69.888-69.12 5.376 0 10.7264 1.0496 15.0272 2.1248a78.9504 78.9504 0 0 1 53.7344-53.1712c8.6016-31.8976 19.3536-61.696 32.256-89.344a257.8432 257.8432 0 0 0-29.0304-34.048c-80.6144 35.1232-155.8272-5.2992-175.1808-99.9424l0.256 1.0752c6.4 0.512 118.8608 14.5664 217.9072 105.2672 90.2656-175.4624 235.3664-252.032 238.592-253.1072zM313.344 677.6832c43.1616-26.2144 86.8352-29.44 121.728-15.232 33.3056 13.824 60.16 44.672 73.0624 89.344-97.7408-64.1536-192.5376-68.8384-200.448-69.12l-0.2816-0.0256L307.2 681.6z m257.2288-106.7264c42.8288-39.1424 109.184-56.2176 188.3648-40.1408 0 0-135.936 53.1968-239.7184 194.7648-6.4256-65.28 12.8256-119.4752 51.3536-154.624zM307.456 682.6496l0.0256 0.0256H307.2h0.128l0.1024-0.0256z" p-id="4957" fill="#009CCC"></path></svg>