<?xml version="1.0" standalone="no"?><!DOCTYPE svg PUBLIC "-//W3C//DTD SVG 1.1//EN" "http://www.w3.org/Graphics/SVG/1.1/DTD/svg11.dtd"><svg t="1566901189689" class="icon" viewBox="0 0 1024 1024" version="1.1" xmlns="http://www.w3.org/2000/svg" p-id="3603" xmlns:xlink="http://www.w3.org/1999/xlink" width="200" height="200"><defs><style type="text/css"></style></defs><path d="M516.4288 519.7824c-15.7184 218.0096 26.4448 433.152 171.0592 529.8176C583.6032 1001.7536 313.1392 1090.1504 435.2 1024c122.0608-66.1504 4.6848-236.1088 81.2288-504.2176z m-50.816 197.376c20.4288 121.5232-45.4912 162.816-141.7216 197.376 18.9184-123.2896 24.4992-141.824 141.7216-197.376z m263.424 129.4592c-85.7088 11.392-142.2336 16.2816-176.5888-97.792 109.8496-2.2528 112.2304-0.896 176.5888 97.792z m-249.3184-197.9648c-92.8768 107.264-155.8016 70.8096-249.3184 11.136 120.32-73.7792 123.6992-73.984 249.344-11.136z m332.4416-96.2816c-64.4352 116.6592-109.7216 191.36-259.712 135.5264 95.488-138.88 99.0208-140.672 259.712-135.5264zM345.0368 447.0784c111.4368 38.656 115.0464 47.104 145.0752 155.8272-90.3168-21.8624-150.6816-45.0048-145.0752-155.8272zM666.7008 405.504c-3.3024 125.696-4.8128 128.3072-111.36 197.376-7.4496-98.5088-9.6512-163.3536 111.36-197.376zM487.6288 332.8c48.768 53.8368 79.3344 90.5472 27.4432 166.2208C460.032 424.3712 459.6736 422.1184 487.6288 332.8z" p-id="3604" fill="#00968E"></path></svg>