<?xml version="1.0" standalone="no"?><!DOCTYPE svg PUBLIC "-//W3C//DTD SVG 1.1//EN" "http://www.w3.org/Graphics/SVG/1.1/DTD/svg11.dtd"><svg t="1566901227682" class="icon" viewBox="0 0 1024 1024" version="1.1" xmlns="http://www.w3.org/2000/svg" p-id="3807" xmlns:xlink="http://www.w3.org/1999/xlink" width="200" height="200"><defs><style type="text/css"></style></defs><path d="M438.153334 246.654045c4.59006 12.092094 8.63721 23.419178 11.203695 36.251605 11.672573 52.070039 3.035362 107.693672-2.541807 159.788388-2.29503 19.372029-5.083615 39.237612-4.071828 58.881096 9.648998-19.372029 21.839803-36.473705 37.090648-53.353281 9.130765-10.562074 18.03943-20.630593 27.688428-30.699113 8.883988-10.068519 19.075896-18.607019 28.206661-28.675538 2.541808-2.51713 6.860413 0 6.095403 3.528918-3.800372 11.820639-8.390433 25.418076-14.461158 36.226927-6.366858 11.080307-13.22727 21.642381-20.087683 31.957678-12.437583 20.902049-26.158408 42.791207-33.808509 65.93893-8.63721 24.406288-8.118978 49.059354-0.493554 73.49032 4.071828 13.819536 8.63721 26.89874 13.967602 39.731166 3.06004 8.834632 6.613635 18.138141 7.896878 27.194874a148.06646 148.06646 0 0 1 9.377543-13.819537c27.713106-36.769838 64.310199-66.457163 94.022202-102.190535 0.493555-0.98711 7.131868-9.056732 3.306817-4.26925a24.480321 24.480321 0 0 0 5.601848-7.551389c3.035362-5.03426 6.34218-10.586752 8.63721-16.114566 3.800372-8.809954 7.10719-19.125251 9.648998-29.440548 5.083615-21.642381 5.601848-41.532642 7.10719-64.40891 1.011787-22.160614 1.011787-44.814782 2.813263-67.444273 0.493555-12.338872 2.023575-24.677743 4.318605-36.52306 1.776798-10.808852 6.588957-21.370926 11.179018-31.192668 2.541808-4.26925 10.414008-2.51713 10.142552 2.51713-0.493555 10.068519 0.246777 19.125251 0.246778 28.700215a173.978091 173.978091 0 0 0 0 28.181983c3.331495 45.036882 16.780865 89.580208 12.980493 134.888546a230.119957 230.119957 0 0 1-37.090649 109.470469c1.258565-0.493555 2.541808-0.740332 3.28214-1.505342a165.735725 165.735725 0 0 0 26.701319-13.597437c18.286208-13.572759 31.760256-33.46302 43.186051-53.106503 10.16723-19.618806 20.063005-40.767632 30.230235-60.633216 2.048253-3.775695 7.896878-1.011787 7.378645 2.51713-7.10719 45.283659-17.27442 93.849458-47.011101 131.11285 12.955815 1.233887 25.171298 2.245675 38.867446 2.245675 6.12008 0.740332 13.22727 0.740332 20.087683 0 6.095403 0 12.437583 1.258565 17.767975-0.493555 6.366858-2.51713 12.215483 7.033157 7.131868 12.092095-5.848625 4.516027-9.130765 10.562074-15.497623 13.819536a81.806719 81.806719 0 0 1-22.876268 9.574964 156.753026 156.753026 0 0 1-49.552908 6.292825c-15.7444-0.493555-32.525266-1.011787-48.516444-3.035363-4.59006 2.270352-8.883988 4.293927-14.239058 6.292825-16.780865 6.046047-35.313851 13.079204-53.871514 14.609224-3.553595 4.26925-7.10719 7.551389-9.895775 11.327084-3.82505 3.775695-6.860413 7.798167-10.16723 11.820639-0.493555 0.740332-2.788585 4.022472-3.06004 4.26925a20.655271 20.655271 0 0 0-4.071828 6.292824c-2.51713 4.540705-5.57717 8.3164-7.600745 13.325982-0.76501 1.53002-1.53002 3.035362-2.813262 4.787482-0.246777 1.53002-1.505342 3.528917-1.505343 3.775695-1.283243 5.79927-2.541808 11.104985-3.306817 16.361344a14.65858 14.65858 0 0 0-1.011788 4.540704c-0.246777 3.257462-0.246777 6.046047-0.518232 8.809955 0 4.022472-0.246777 8.044944-0.148067 12.092094l0.394844 6.021369v9.30351c0.246777 0.246777 1.283243 6.539602 1.283243 5.281037 1.776798 12.092094 9.969808 220.56967 5.13297 229.873179-2.023575 3.528917-31.513478 13.079204-61.743714 12.092095-31.760256-0.246777-64.532299-10.833529-64.532299-19.890262 0.246777-23.665956 39.311645-238.929911 22.284003-293.023524-1.258565-3.775695-3.800372-6.292825-6.34218-8.809955 0 0-3.800372-4.540705-4.318605-5.281037-2.541808-2.270352-5.083615-4.787482-8.143656-7.304612a11.055629 11.055629 0 0 1-2.788585-2.270352 6.021369 6.021369 0 0 0-2.023575-0.493555 85.829191 85.829191 0 0 0-8.63721-5.281037 12.635005 12.635005 0 0 0-4.071828-1.258565c-0.246777-0.76501-0.493555-0.76501-0.740332-1.011788-12.980493-3.528917-25.418076-6.046047-38.398569-9.328187a534.273144 534.273144 0 0 0-40.89102-8.291721c-12.46226-2.51713-24.924521-3.775695-37.115326-8.044945-27.935206-8.563177-48.516443-26.676641-56.660099-54.365068-1.776798-7.304612 7.10719-10.315297 11.450473-4.540705 15.991178 22.160614 38.349213 34.22803 65.790864 36.52306 28.971671 2.220997 53.377959-7.576067 82.324951-6.070725 5.083615 0.246777 10.16723 0.740332 15.497623 1.011788a30.230236 30.230236 0 0 0-5.823947-8.563177 252.206537 252.206537 0 0 0-59.966917-66.432485 253.71188 253.71188 0 0 0-34.795618-21.889159c-11.968706-6.539602-26.701318-12.338872-40.422143-12.338872-4.318605-0.246777-5.848625-7.033157-1.011788-8.538499 7.8722-1.776798 15.991178-5.552492 23.888056-6.292824 8.63721-1.011787 16.780865-1.258565 24.134833-0.493555 18.014753 1.480665 33.537053 6.268147 49.034676 15.078101 13.720825 7.798167 26.158408 17.619909 37.090648 29.19377a441.854995 441.854995 0 0 1-5.330392-47.307234 10.61143 10.61143 0 0 0-1.258565-4.269249c-7.378645-14.856002-16.780865-27.688428-26.429863-41.039087a144.562221 144.562221 0 0 1-26.429864-96.366588c0.740332-4.787482 7.10719-5.79927 7.896878-1.011788 8.365755 30.205558 34.795618 49.330809 54.858624 72.231755 1.283243-6.046047 2.788585-11.080307 4.565382-16.879576 16.040533-51.576484 37.115326-107.693672 27.959884-162.552296-1.011787-4.540705 4.836838-6.292825 6.34218-2.023575zM764.911334 658.402193c-0.740332 4.022472-1.233887 9.08141-1.505343 13.622115-0.246777 9.303509 0.740332 19.396706 1.776798 29.218448 0.839043 6.070725 1.678087 12.338872 2.591163 18.755085l1.381953 9.500931c-0.024678-2.319708-3.430206-38.768735 3.331496-70.825124 14.362447 4.26925 25.960986 23.937411 27.466328 47.381268 2.270352 27.713106-27.219551 60.213694-27.219551 60.213694s-33.265598-28.206661-35.289173-56.191222c-1.776798-26.972774 10.586752-50.41663 27.466329-51.675195zM215.4367 631.281353c-3.28214 4.787482-6.56428 9.328187-9.821742 14.609224-5.79927 10.61143-10.364652 22.950301-14.633902 34.302064-4.540705 11.845317-7.798167 23.197079-12.092094 34.77094-0.246777 1.258565 17.397809-44.370583 45.110915-78.376513 13.622114 12.832427 15.892467 41.828775 4.540704 69.813336-14.609224 32.772043-66.802651 52.662304-66.802651 52.662304s-21.667059-51.650517-7.798167-83.904327c14.115669-32.278488 41.088443-51.699872 61.496937-43.877028z m-94.910601 24.875166c-3.010685 2.245675-6.292825 5.281037-9.328187 8.044944-6.292825 6.811057-12.092094 14.633902-17.126354 21.691736l-7.798167 11.203696-6.046047 8.908665 1.233887-1.554698c6.712346-8.489144 24.036122-28.502794 43.85235-43.506861 8.069622 12.092094 4.04715 32.747365-9.574965 50.663407-16.632799 20.655271-57.203009 24.677743-57.203009 24.677743s-5.552492-40.323433 10.586752-61.225481c15.621012-19.914939 38.546635-28.231338 51.40374-18.903151z m753.608927-21.963192c20.655271 27.713106 10.586752 80.646865 10.586752 80.646865s-53.451992-7.551389-73.860486-35.042395c-17.397809-24.184189-21.420281-51.921972-10.858207-67.296206 29.144415 22.555457 53.155859 55.401534 58.264152 62.952923l0.419521 0.616943-5.429103-9.056731c-4.022472-6.761702-8.118978-13.572759-12.659682-19.988972-6.786379-10.315297-13.079204-20.655271-21.420282-29.489904a103.646522 103.646522 0 0 0-12.832426-11.080307c17.619909-12.092094 47.628045 0 67.789761 27.713106zM80.128633 706.128949l-0.641622 0.863721a11.771284 11.771284 0 0 0-0.789687 1.209209v0.098711l1.431309-2.171641z m874.455836-109.050948c23.443856 15.127457 32.525266 57.499142 32.525266 57.499142s-42.347008 10.808852-66.037641-3.800372c-19.914939-12.832427-32.007033-32.253811-27.984561-47.13449 30.156202 8.513821 59.029162 27.12084 63.249056 29.909425l0.518233 0.345488c-7.798167-5.552492-15.621012-11.351762-23.197079-16.386022-8.044944-5.79927-16.114566-11.598539-25.171298-15.645689-4.293927-2.245675-8.587855-3.257462-12.610327-4.787482 9.574964-14.609224 35.53595-14.609224 58.733029 0zM234.611306 509.422656c-8.069622 2.51713-16.386022 5.03426-24.455643 9.328187-17.397809 8.3164-34.030608 19.396706-49.404843 30.230236-10.241264 7.057835-20.605916 14.461158-30.94589 21.963192l-15.423589 11.327084c-1.258565 0.740332 61.496936-40.841665 125.75778-58.979807 6.317502 28.478116-16.114566 67.296206-56.191222 91.727172-46.640935 28.749571-130.051708 7.576067-130.051707 7.576068s18.384919-84.447238 65.025853-112.925354c45.875925-28.231338 97.279664-28.231338 115.689261-0.246778z m608.89864-39.977944c47.628045 0.518233 98.31613 55.722345 98.31613 55.722345s-52.440205 52.686982-99.821472 51.921972c-41.088443-0.493555-75.119051-19.149929-82.423663-42.840563 55.697667-15.645689 120.994976-12.610327 119.983188-12.857104-16.632799-1.53002-33.265598-2.788585-49.404842-4.04715-16.139244-0.740332-33.265598-1.998897-50.41663-0.493555a203.097828 203.097828 0 0 0-22.185291 4.540705c1.53002-29.243126 39.336323-52.193427 85.95258-51.921972z m-747.982401 1.776798c-4.540705 0.493555-8.563177 0.98711-13.103882 2.023575-8.3164 2.270352-16.879576 6.292825-25.195976 9.574964-5.552492 2.344386-11.104985 4.59006-16.657477 7.008479l-7.576067 3.479562 0.715654-0.246777c6.712346-2.665196 35.684017-13.079204 63.32309-15.053424 0 13.89357-14.609224 29.761359-35.042396 37.830981-24.184189 9.08141-61.990491-8.3164-61.990491-8.3164s16.632799-37.806303 41.088443-47.13449c24.184189-8.563177 48.1216-4.04715 54.439102 10.83353z m-62.78018 22.209969l-0.419521 0.172744-0.074033 0.049355 0.493554-0.246777z m0.246778-0.123389l-0.246778 0.123389 0.246778-0.123389z m950.191831-37.905014s-21.667059 27.984561-44.099128 30.008136c-21.938514 2.270352-41.581998-6.811057-42.840562-20.161716 3.257462 0.493555 6.786379 0.740332 10.833529 0.740332 8.069622 0 15.621012-0.740332 23.443856-2.245675l22.777558-4.195216c-4.688771 0.715655-32.081066 3.948439-56.808166-0.616943 2.51713-11.598539 17.644587-21.913836 37.559526-23.937412 22.160614-2.763907 49.133387 20.408494 49.133387 20.408494zM288.556853 367.451599c27.713106 23.690634 40.816988 56.709454 32.253811 78.62329-42.86524-19.964294-83.509484-54.833946-89.925697-60.682571l15.053423 14.781969 15.892467 15.398911c11.351762 10.364652 22.185291 21.444959 35.289173 30.008136 5.552492 4.022472 11.845317 7.304612 18.384919 10.586752-17.644587 19.643484-58.214797 12.832427-90.98684-14.362446-32.772043-28.231338-36.794515-96.045777-36.794515-96.045778s67.814439-6.539602 100.833259 21.691737z m-144.340121 17.151031c33.783831 9.08141 57.227687 33.808508 51.428417 54.957335a87.852766 87.852766 0 0 0-15.374234-7.822845c-11.104985-4.516027-24.184189-7.551389-36.029505-9.574964-11.845317-3.010685-23.962089-5.03426-35.807406-7.55139-1.258565 0 46.122702 11.104985 83.929006 33.783831-11.598539 15.621012-39.829878 21.667059-68.801549 14.115669-34.548841-9.328187-61.003382-58.733029-61.003382-58.733029s47.874822-28.231338 81.683331-19.174607z m809.750794 74.872274l-0.666299 0.098711 0.54291-0.074033 0.123389-0.024678z m-32.895432-98.414841l-0.172744 0.962432c-1.53002 7.576067-12.511616 57.597853-40.915699 76.920526-30.501691 20.655271-64.779076 21.667059-78.62329 2.763908 6.046047-1.505342 11.598539-3.775695 16.632799-6.811058 12.092094-6.046047 22.950301-14.115669 32.500588-21.913836 6.909768-4.688771 13.572759-9.969808 20.309782-15.20149l8.587855-6.539602-0.493555 0.394844c-8.933343 6.243469-44.419938 29.218448-81.584619 41.261187-5.03426-19.668161 9.328187-45.900603 36.029505-63.767289 30.008136-20.433172 87.729378-8.069622 87.729378-8.069622z m-202.900406-97.131598l0.789687 0.567588c7.008479 5.231682 58.165441 44.61736 64.729721 86.372102 6.292825 44.370583-10.858207 84.694015-38.81809 89.752953 1.258565-7.576067 1.776798-15.127457 1.776798-22.703524-0.493555-16.114566-4.540705-32.253811-7.32929-48.1216a1644.278041 1644.278041 0 0 0-6.490247-31.069278l-3.331495-15.300201 0.074033 0.419521c0.98711 5.873303 10.043842 64.162133 3.208107 116.503627-24.702421-4.787482-46.14738-35.289173-51.675195-74.107264-7.057835-45.60447 37.065971-102.313924 37.065971-102.313924z m162.82375 126.103269l-1.431309 1.085821 0.320811-0.197422a17.792653 17.792653 0 0 0 1.085821-0.814366l0.024677-0.074033zM119.341567 294.923711c33.265598 11.598539 54.685879 37.041293 48.1216 58.486252-5.281037-3.800372-9.821742-6.070725-14.856002-8.587855-11.351762-6.046047-23.937411-9.08141-35.782728-12.585649-7.748811-2.369063-15.571656-4.26925-23.443856-6.317502l-11.845317-3.28214c-1.776798-0.493555 45.875925 14.362447 81.165098 38.81809-11.598539 15.621012-40.34811 19.421384-69.344459 9.574965-33.265598-11.104985-56.956232-61.743714-56.956232-61.743714l1.727443-0.863721c9.056732-4.392638 51.403739-23.591923 81.189775-13.498726zM594.733615 157.295936s48.615154 71.565456 37.288071 124.770671c-10.586752 52.93376-46.394158 90.493285-79.388301 84.447238 3.775695-7.822845 7.551389-15.892467 10.068519-24.455644 5.79927-18.162819 9.08141-37.065971 12.092095-56.462677 2.023575-12.585649 3.82505-25.097265 5.478459-37.485492l2.196319-17.521198-0.049356 0.370166c-1.826153 10.216586-15.300201 76.180194-44.17316 130.24913-25.171298-15.374234-37.016615-57.992697-27.466329-104.855732 11.351762-53.180537 83.953683-99.056462 83.953683-99.056462zM872.01274 231.72401l0.197422 0.888399c1.554698 6.959124 10.981596 53.229892-5.996692 79.511689-16.139244 24.702421-40.076655 38.324535-57.992697 33.783831 10.93224-35.461917 33.117532-69.714625 37.73227-76.451649l0.123389-0.246778-6.34218 8.341078-7.304612 9.500931-7.057835 9.451576c-6.56428 10.339974-13.868892 19.668161-19.396706 30.254913a143.624466 143.624466 0 0 0-6.070725 15.621012c-17.644587-12.092094-16.879576-43.85235 1.776797-72.083689 18.656374-28.749571 70.331569-38.571313 70.331569-38.571313z m-485.707345-108.582071s43.877028 73.613708 28.996348 126.547468c-12.585649 45.357692-43.112018 77.882958-72.083688 79.635078-0.444199-60.016272 17.27442-124.055016 20.630593-135.579522l0.098711-0.419521-4.195216 12.190805c-4.81216 13.498726-10.043842 26.824707-14.016958 39.879233-6.046047 18.656374-12.092094 37.559525-15.621012 56.2159-1.53002 8.809954-1.53002 17.373131-1.258565 26.45454-32.278488-9.821742-47.13449-59.473362-32.278488-110.901778 13.868892-53.180537 89.728275-94.022202 89.728275-94.022203z m-130.79204 97.797897c27.959883 32.031711 35.289173 73.095476 15.621011 91.011518a120.920943 120.920943 0 0 0-10.858207-17.916042c-8.809954-12.585649-19.890261-23.937411-30.230235-35.289173-10.586752-10.833529-21.913836-21.173504-32.500588-31.4888-1.283243-1.011787 40.323433 42.840562 64.014066 90.98684-22.456746 8.809954-55.450889-3.28214-80.400088-31.760256-28.749571-32.772043-23.937411-101.080037-23.937411-101.080037s69.048326 2.270352 98.291452 35.53595zM814.291498 182.368524s5.79927 42.840562-11.080307 63.520511c-16.879576 21.420281-40.841665 29.983458-54.439102 20.161716 3.28214-3.035362 7.304612-5.552492 10.06852-8.563177 7.057835-6.56428 12.610327-14.880679 18.162819-22.456746 5.281037-7.551389 10.833529-15.621012 15.621011-23.690634 0.246777-0.493555-21.667059 30.008136-48.886609 49.158065-7.32929-12.585649-3.528917-34.030608 10.833529-52.415527 16.879576-21.420281 59.720139-25.714209 59.720139-25.714208z m-684.807379 34.54884c15.645689 15.596334 20.186394 36.276283 11.104985 46.344802-1.998897-2.763907-4.022472-6.292825-6.539602-9.303509-4.540705-6.317502-10.858207-11.351762-16.904254-16.386022a174.224868 174.224868 0 0 0-11.549184-10.339974l-4.04715-3.356173 0.246777 0.2221c6.095403 5.675881 23.123046 23.197079 34.005931 42.939273-11.104985 5.058937-28.724893 0-42.593785-14.090991-15.621012-15.374234-15.374234-51.428417-15.374234-51.428418s35.289173-0.493555 51.675194 15.374235z m717.307967 51.354384l-0.345488 0.4442 0.345488-0.4442z m-139.20715-131.458339s26.207763 44.61736 16.632799 76.377616c-8.563177 31.513478-31.266701 52.93376-51.428417 47.628045 2.788585-5.03426 5.305715-9.303509 7.576067-14.609224 4.022472-10.586752 6.786379-21.913836 9.574964-33.265598 3.010685-11.104985 5.281037-22.432069 7.057835-33.512376 0-1.53002-10.339974 43.08734-32.278488 77.611503-14.609224-10.586752-20.161716-36.52306-11.845317-64.260844 8.587855-32.007033 54.710557-55.969122 54.710557-55.969122z m-608.059597 85.384992l2.023575 1.678087-0.76501-0.715655a13.572759 13.572759 0 0 0-1.184532-0.962432h-0.098711z m395.164705-9.229476c-22.950301 0.246777-47.381267-22.703524-59.473362-55.969122-14.140347-38.546635 14.090991-97.526442 14.090992-97.526441s59.226584 26.207763 73.366931 65.272631c14.609224 37.806303 6.539602 76.377616-17.397809 85.95258a129.558153 129.558153 0 0 0-2.763908-20.161716c-3.800372-14.115669-9.328187-27.737784-15.127456-41.088443-3.701662-8.563177-7.625423-17.373131-11.59854-26.010342l-5.799269-12.215483 0.246777 0.616944c3.232784 8.217689 20.828015 55.475567 24.430966 101.129392zM210.40244 87.605989s49.923075 12.338872 66.802651 41.088443c16.139244 28.724893 15.374234 59.473362-2.270352 70.331568-1.505342-5.058937-3.010685-10.61143-5.281037-15.398912-5.058937-10.586752-11.351762-20.408494-17.397809-30.230235-6.292825-9.599642-12.857104-18.927829-19.421384-28.502794-0.493555-0.740332 23.690634 37.806303 33.537053 77.389403-17.397809 3.28214-40.076655-11.351762-53.945547-35.782727-16.879576-28.502794-2.023575-78.894746-2.023575-78.894746zM805.234766 124.178405s-3.800372 35.53595-21.444959 48.639832c-15.374234 12.338872-33.018821 15.645689-43.605572 9.081409 16.657477-22.185291 41.33522-40.57021 40.594888-40.323432-6.317502 4.540705-12.585649 8.3164-18.903152 13.079204-6.56428 4.565383-13.375337 9.106087-19.149929 14.905357-2.270352 2.51713-5.058937 4.787482-7.057834 8.563177-8.587855-11.845317-1.011787-31.513478 17.126354-45.38237 17.151032-13.844214 52.440205-8.563177 52.440204-8.563177z m-167.265744-58.807063s28.996348 31.513478 26.454541 58.733029c-1.998897 27.466328-17.126354 47.628045-34.277386 46.887713 2.023575-4.04715 3.035362-8.587855 4.293927-12.857104 0.98711-9.08141 1.75212-18.903151 2.023575-28.478116 0.148066-6.416213 0.098711-12.659682 0.123389-18.829119l0.098711-9.106087-0.024678 0.493555c-0.345488 4.762804-2.714552 38.941479-13.325981 67.246851-13.325981-6.539602-22.160614-26.454541-20.408494-49.898397 2.023575-26.972774 35.042396-54.192324 35.042396-54.192325z m-64.655688-0.296133s24.184189 26.207763 22.925624 48.393055c-1.011787 19.421384-10.61143 34.795618-21.938514 38.81809-5.675881-24.727099-4.392638-52.316816-4.096506-57.005587l0.024678-0.592266-1.061143 7.748812c-0.345488 2.615841-0.616944 5.231682-0.888399 7.798167l-0.789687 7.526711c-0.98711 8.3164-1.75212 16.632799-0.98711 24.184189 0 3.528917 0.740332 7.576067 1.480665 11.351762-14.337769-1.505342-23.937411-20.408494-22.925624-42.10023 0.740332-22.950301 28.231338-46.122702 28.231338-46.122703zM344.748075 49.355487s15.621012 32.007033 7.551389 53.180537c-7.551389 20.679949-24.677743 33.783831-37.806302 29.73668 2.788585-3.528917 4.540705-6.046047 6.046047-9.574964 3.528917-6.811057 5.79927-15.127457 8.069622-22.185291 2.51713-7.551389 4.04715-15.102779 6.811057-22.925624 0-0.740332-9.821742 29.243126-26.207764 51.156962-9.08141-6.786379-11.598539-25.689531-4.787482-44.099127C311.729254 64.236166 344.748075 49.355487 344.748075 49.355487z m125.066803 61.447581l-0.049355-0.148067-0.024678-0.049355 0.074033 0.197422z" p-id="3808" fill="#33B37C"></path></svg>