<?xml version="1.0" standalone="no"?><!DOCTYPE svg PUBLIC "-//W3C//DTD SVG 1.1//EN" "http://www.w3.org/Graphics/SVG/1.1/DTD/svg11.dtd"><svg t="1566900518939" class="icon" viewBox="0 0 1024 1024" version="1.1" xmlns="http://www.w3.org/2000/svg" p-id="2453" xmlns:xlink="http://www.w3.org/1999/xlink" width="200" height="200"><defs><style type="text/css"></style></defs><path d="M844.8 51.2v865.3312C844.8 948.6848 817.664 972.8 784.4608 972.8c-33.1776 0-63.3344-24.1152-63.3344-56.2688l3.0208-345.6s-51.3024-18.7392-51.3024-69.632l6.0416-302.7456C681.9072 123.5456 751.2832 51.2 844.8 51.2z m-482.6624 16.0768l12.0832 203.5968h21.0944l12.0832-203.5968 30.1568 2.688 42.24 192.8704c0 64.3072 12.0576 147.3536-84.48 160.768l21.12 498.304c0 26.7776-27.136 50.8928-54.272 50.8928h-39.2448c-27.136 0-54.272-24.1152-54.272-50.8928l21.0944-498.304c-96.512-13.4144-84.48-96.4608-84.48-160.768l42.24-192.8704 30.1824-2.688 12.0576 203.5968h21.12l12.0576-203.5968h39.2192z" p-id="2454" fill="#E78300"></path></svg>