<?xml version="1.0" standalone="no"?><!DOCTYPE svg PUBLIC "-//W3C//DTD SVG 1.1//EN" "http://www.w3.org/Graphics/SVG/1.1/DTD/svg11.dtd"><svg t="1566900433329" class="icon" viewBox="0 0 1024 1024" version="1.1" xmlns="http://www.w3.org/2000/svg" p-id="2267" xmlns:xlink="http://www.w3.org/1999/xlink" width="200" height="200"><defs><style type="text/css"></style></defs><path d="M836.5056 375.3472c-3.328-34.7392-34.5856-63.1296-69.504-63.1296h-18.432V180.1728a128.9984 128.9984 0 0 0-120.4992-128.512 156.4928 156.4928 0 0 1 61.1584 84.736c7.9872 12.7232 12.8256 27.648 12.8256 43.776v132.0448h-33.9712V180.1728A129.1264 129.1264 0 0 0 539.1104 51.2h-142.6688a129.1264 129.1264 0 0 0-128.9728 128.9728v132.0448h-18.432c-34.8928 0-66.1504 28.416-69.504 63.1296L128.2816 909.696C125.0048 944.4096 150.8096 972.8 185.7024 972.8H830.464c34.8672 0 60.672-28.416 57.344-63.104l-51.3024-534.3488z m-526.592 161.4592a52.8128 52.8128 0 1 1 0-105.728 52.864 52.864 0 0 1 0 105.728z m311.7056-224.5888H394.496V180.1728c0-21.1712 8.2688-40.3456 21.4528-54.9632h-19.456c-18.176 0-34.176 8.9856-44.2112 22.5792a128.8704 128.8704 0 0 0-4.2496 32.384v132.0448h-33.9968V180.1728a82.5344 82.5344 0 0 1 82.4576-82.432h142.6688a82.56 82.56 0 0 1 82.4576 82.432v132.0448h0.0256z m84.608 224.5888a52.8128 52.8128 0 1 1 0-105.728 52.864 52.864 0 0 1 0 105.728z" p-id="2268" fill="#009CCC"></path></svg>