<?xml version="1.0" standalone="no"?><!DOCTYPE svg PUBLIC "-//W3C//DTD SVG 1.1//EN" "http://www.w3.org/Graphics/SVG/1.1/DTD/svg11.dtd"><svg t="1566900173662" class="icon" viewBox="0 0 1024 1024" version="1.1" xmlns="http://www.w3.org/2000/svg" p-id="2121" xmlns:xlink="http://www.w3.org/1999/xlink" width="200" height="200"><defs><style type="text/css"></style></defs><path d="M86.6048 452.2752l181.5808 181.5552-80.3584 80.384a22.7072 22.7072 0 0 1-31.2832 0l-150.272-150.272a22.7072 22.7072 0 0 1 0-31.3344l80.3328-80.3328z m274.1504-155.6992c26.1632-12.9024 55.6288-18.2784 83.968-12.9024l256.3072 44.1088a46.336 46.336 0 0 1 29.44 19.3536c7.6288 9.6768 9.8048 22.6048 7.6288 34.432a46.1312 46.1312 0 0 1-42.5216 36.5824l-10.9056 1.0752a1152.2816 1152.2816 0 0 1-172.3136-3.2256l-49.1008-5.376c-15.2576-1.0752-29.44 9.6768-30.5152 24.7296-1.1008 15.0528 9.8048 29.056 25.088 30.1312l49.0752 5.376c59.9808 6.4512 122.1376 7.5264 182.1184 3.2256l10.9056-1.0752c45.824-3.2256 83.968-36.5824 92.6976-80.6912 0-4.3008 1.1008-7.5264 1.1008-11.8272l167.936-27.9808a55.2192 55.2192 0 0 1 52.3776 21.504 55.04 55.04 0 0 1 8.704 43.0592c-3.2512 15.0528-13.056 26.88-26.1632 34.4064L645.376 651.5968a152.0384 152.0384 0 0 1-110.1568 16.128l-214.8352-51.6352-198.5024-195.7888z" p-id="2122" fill="#33B37C"></path></svg>