<?xml version="1.0" standalone="no"?><!DOCTYPE svg PUBLIC "-//W3C//DTD SVG 1.1//EN" "http://www.w3.org/Graphics/SVG/1.1/DTD/svg11.dtd"><svg t="1566906574786" class="icon" viewBox="0 0 1024 1024" version="1.1" xmlns="http://www.w3.org/2000/svg" p-id="5168" xmlns:xlink="http://www.w3.org/1999/xlink" width="200" height="200"><defs><style type="text/css"></style></defs><path d="M512 0c282.304 0 512 229.696 512 512s-229.696 512-512 512-512-229.696-512-512 229.696-512 512-512z m195.52 350.784L429.056 604.8l-112.64-102.656a37.888 37.888 0 0 0-50.048 0 30.336 30.336 0 0 0 0 45.696l137.6 125.44a37.12 37.12 0 0 0 25.088 9.472 37.12 37.12 0 0 0 25.024-9.472l0.064-0.064 303.488-276.672a30.272 30.272 0 0 0 0-45.696 37.888 37.888 0 0 0-50.112 0z" p-id="5169" fill="#00A06B"></path></svg>