<?xml version="1.0" encoding="UTF-8"?>
<svg width="163px" height="40px" viewBox="0 0 163 40" version="1.1" xmlns="http://www.w3.org/2000/svg" xmlns:xlink="http://www.w3.org/1999/xlink">
    <!-- Generator: Sketch 55.2 (78181) - https://sketchapp.com -->
    <title>Group 42 Copy 2</title>
    <desc>Created with Sketch.</desc>
    <defs>
        <rect id="path-1" x="0" y="0" width="162.644628" height="40"></rect>
    </defs>
    <g id="4-Loan" stroke="none" stroke-width="1" fill="none" fill-rule="evenodd">
        <g id="Loan-Unable-to-Proceed" transform="translate(-44.000000, -475.000000)">
            <g id="Group-42-Copy-2" transform="translate(44.000000, 475.000000)">
                <g id="ledger">
                    <mask id="mask-2" fill="white">
                        <use xlink:href="#path-1"></use>
                    </mask>
                    <use id="Rectangle-Copy-2" fill="#D45631" xlink:href="#path-1"></use>
                    <g id="Group" mask="url(#mask-2)">
                        <g transform="translate(87.000000, -12.000000)">
                            <g id="coin" transform="translate(65.620202, 25.364098)">
                                <path d="M4.07333818,2.88424105 C3.69206218,4.07787055 2.49718318,4.76259655 1.40494168,4.41345055 C0.312700184,4.06448305 -0.263676316,2.81391205 0.117599684,1.62028255 C0.499232684,0.426653045 1.69375468,-0.257894455 2.78599618,0.0910730451 C3.87859468,0.440219045 4.45479268,1.69079005 4.07333818,2.88424105" id="Fill-1735" fill="#DB9B47"></path>
                                <path d="M4.07333818,2.88424105 C3.69206218,4.07787055 2.53466818,4.77455605 1.48847968,4.44022555 C0.442469684,4.10589505 -0.0966003156,2.86728355 0.284854184,1.67365405 C0.666308684,0.480024545 1.82352418,-0.216482455 2.86971268,0.117848045 C3.91590118,0.452178545 4.45479268,1.69079005 4.07333818,2.88424105" id="Fill-1736" fill="#F3B64D"></path>
                                <path d="M3.57193168,2.72412655 C3.29168668,3.60163255 2.44059868,4.11392755 1.67126368,3.86813305 C0.902107184,3.62233855 0.505837184,2.71145305 0.786260684,1.83394705 C1.06686268,0.956262545 1.91759368,0.444146045 2.68692868,0.689940545 C3.45608518,0.935735045 3.85235518,1.84644205 3.57193168,2.72412655" id="Fill-1737" fill="#DB9B47"></path>
                            </g>
                            <g id="Group-37" transform="translate(65.046650, 7.017727)">
                                <polyline id="Fill-1741" fill="#8BC170" points="13.1599125 5.2780665 2.7808515 11.1517875 0 6.2837355 10.446534 -9.09494702e-13 13.1599125 5.2780665"></polyline>
                                <path d="M2.5862865,9.8747985 L1.0211985,7.1237565 C1.3478535,6.9299055 1.461915,6.503826 1.2743115,6.172173 L9.6138315,1.1857755 C9.7980435,1.5399195 10.238403,1.653267 10.598973,1.439067 L12.129432,4.402167 C11.77029,4.608156 11.624991,5.053335 11.8033125,5.396412 L3.507168,10.1193435 C3.325098,9.797508 2.9122275,9.6880875 2.5862865,9.8747985" id="Fill-1742" fill="#95C877"></path>
                                <path d="M7.954317,4.9217805 C8.474109,5.8935345 8.2140345,7.0634235 7.383474,7.537698 C6.5604105,8.0080455 5.4769155,7.62195 4.953375,6.6725085 C4.4255505,5.7153915 4.6593855,4.537827 5.4861975,4.045167 C6.320328,3.548223 7.4300625,3.9421725 7.954317,4.9217805" id="Fill-1743" fill="#8BC170"></path>
                                <path d="M4.258296,7.1159025 C4.5383625,7.6203435 4.415733,8.22885 3.987333,8.475894 C3.560718,8.721867 2.9893395,8.51802 2.7083805,8.0198265 C2.426172,7.5193125 2.541483,6.908664 2.9689905,6.656622 C3.398283,6.4033305 3.97698,6.6093195 4.258296,7.1159025" id="Fill-1744" fill="#8BC170"></path>
                                <polyline id="Fill-1745" fill="#8BC170" points="11.311902 3.940923 8.7284715 5.4351465 7.941465 3.958416 10.5302505 2.43474 11.311902 3.940923"></polyline>
                            </g>
                            <g id="Group-35" transform="translate(10.883502, 3.788306)">
                                <polyline id="Fill-1751" fill="#8BC170" points="14.468496 6.076497 2.455446 11.2513905 0 5.6140035 12.135144 -9.09494702e-13 14.468496 6.076497"></polyline>
                                <path d="M2.394756,9.836064 L1.01388,6.65091 C1.3931925,6.478122 1.567944,6.027231 1.402653,5.6432775 L11.0868135,1.194165 C11.2456785,1.602216 11.7122775,1.77786 12.1310385,1.587222 L13.4487255,4.999428 C13.032642,5.181498 12.8214765,5.6497035 12.9753435,6.0449025 L3.369723,10.2118065 C3.2092515,9.8394555 2.772105,9.6709515 2.394756,9.836064" id="Fill-1752" fill="#95C877"></path>
                                <path d="M4.54461,7.02576 C4.7904045,7.6089195 4.5844155,8.2579455 4.088007,8.476608 C3.5937405,8.694378 2.994873,8.4043155 2.747472,7.827939 C2.499,7.2487065 2.697135,6.596646 3.1931865,6.3722715 C3.69138,6.1470045 4.297923,6.44028 4.54461,7.02576" id="Fill-1754" fill="#8BC170"></path>
                            </g>
                            <g id="Group-34" transform="translate(41.588715, 0.000000)">
                                <polyline id="Fill-1756" fill="#8BC170" points="9.09494702e-13 11.7686835 4.9585515 0 10.500084 2.3085405 5.752698 14.4690315 9.09494702e-13 11.7686835"></polyline>
                                <path d="M5.9585085,0.9555105 L9.084936,2.2642725 C8.9348175,2.6423355 9.116709,3.078054 9.4928085,3.2367405 L5.6832615,12.919116 C5.295381,12.7393665 4.8478815,12.931254 4.6822335,13.3487655 L1.446564,11.8372275 C1.6163175,11.4277485 1.4481705,10.955259 1.0726065,10.781043 L5.017992,1.3503525 C5.3826675,1.504041 5.804463,1.326969 5.9585085,0.9555105" id="Fill-1757" fill="#95C877"></path>
                                <polyline id="Fill-1760" fill="#8BC170" points="2.441166 11.6937135 3.654609 8.7370395 5.2877055 9.474423 4.089078 12.459657 2.441166 11.6937135"></polyline>
                            </g>
                            <g id="coin" transform="translate(58.057995, 7.126070)"></g>
                            <g id="coin" transform="translate(10.912370, 36.414793)">
                                <path d="M0.00290548569,2.048923 C0.0610964857,3.1183165 1.01089499,3.9362035 2.12473499,3.8758705 C3.23839649,3.8155375 4.09430399,2.8994755 4.03629149,1.830082 C3.97827899,0.7606885 3.02848049,-0.0571985002 1.91464049,0.00313449979 C0.800800486,0.0636459998 -0.0551070143,0.9795295 0.00290548569,2.048923" id="Fill-1782" fill="#C38C41"></path>
                                <path d="M0.00290548569,2.048923 C0.0610964857,3.1183165 0.972695986,3.9383455 2.03941199,3.8805115 C3.10612799,3.8226775 3.92383649,2.9087575 3.86582399,1.839364 C3.80781149,0.7699705 2.89603349,-0.0500585002 1.82931749,0.00777549979 C0.762601486,0.0656094998 -0.0551070143,0.9795295 0.00290548569,2.048923" id="Fill-1783" fill="#D9A546"></path>
                                <path d="M0.514307986,2.021077 C0.556790986,2.807548 1.22723699,3.410521 2.01174449,3.3678595 C2.79607349,3.3253765 3.39726149,2.6535025 3.35459999,1.86721 C3.31193849,1.080739 2.64149249,0.477766 1.85716349,0.5204275 C1.07283449,0.5629105 0.471646486,1.2347845 0.514307986,2.021077" id="Fill-1784" fill="#C38C41"></path>
                            </g>
                            <g id="Group-33" transform="translate(11.909520, 19.528971)">
                                <path d="M12.6415485,11.2413945 C7.626948,9.929241 8.93214,1.514037 3.589278,9.09494702e-13 C2.380119,1.365525 1.183812,2.716413 0,4.053021 C5.3051985,5.491017 4.162977,13.622049 9.145269,14.869407 C10.2989145,13.6722075 11.464341,12.46287 12.6415485,11.2413945" id="Fill-1800" fill="#709459"></path>
                                <path d="M3.3909645,1.1568585 C2.7355125,1.894242 2.0839875,2.627163 1.436211,3.3559785 C1.8747855,3.538941 1.9697475,3.977694 1.715385,4.26258 C5.092962,6.403509 5.0360205,12.0535695 8.2272435,13.998327 C8.4767865,13.7375385 8.9551665,13.708443 9.358041,13.8671295 C9.988146,13.211142 10.6216425,12.5515845 11.2585305,11.888457 C10.854942,11.726022 10.783899,11.325111 11.036655,11.0607525 C7.845432,9.050664 7.9862685,3.2395965 4.607442,1.0244115 C4.34469,1.3185795 3.83061,1.344462 3.3909645,1.1568585" id="Fill-1801" fill="#7AA260"></path>
                                <path d="M7.344204,9.72752748 C8.0116155,9.0144285 8.147811,7.544124 7.6949565,6.3747705 C7.2362115,5.1902445 6.2508915,4.8853665 5.564559,5.636673 C4.8909,6.3740565 4.781301,7.8623895 5.2509345,9.017463 C5.714499,10.157721 6.671973,10.4456415 7.344204,9.72752748" id="Fill-1802" fill="#709459"></path>
                                <path d="M5.0713635,4.675272 C5.4340755,4.276146 5.4679905,3.487176 5.0649375,2.9996925 C4.6615275,2.506854 3.956988,2.525061 3.5915985,2.932755 C3.226566,3.3402705 3.3395565,3.978051 3.744216,4.463928 C4.148697,4.94445 4.706331,5.077254 5.0713635,4.675272" id="Fill-1803" fill="#709459"></path>
                                <path d="M10.2878475,12.108726 C9.316629,11.560374 8.6427915,10.684296 8.0922975,9.660063 C7.755111,10.0193835 7.4186385,10.377633 7.083237,10.7348115 C7.637301,11.7483345 8.3132805,12.614952 9.284499,13.156878 C9.6181155,12.808446 9.952446,12.4591215 10.2878475,12.108726" id="Fill-1804" fill="#709459"></path>
                            </g>
                            <g id="Group-6" transform="translate(22.611309, 45.668868)">
                                <polyline id="Fill-1805" fill="#7EA963" points="0 4.5576405 8.872878 11.8615035 12.323283 7.7042385 3.454689 0 0 4.5576405"></polyline>
                                <path d="M9.2700405,10.6819755 L11.214084,8.3314875 C10.936338,8.0930115 10.8990315,7.6696095 11.1325095,7.385973 L4.0474875,1.2639585 C3.8136525,1.569372 3.376863,1.603644 3.0702,1.3403565 L1.1240145,3.8979045 C1.430499,4.153338 1.4942235,4.6001235 1.2678855,4.895898 L8.355585,10.760694 C8.581923,10.4856255 8.992116,10.4502825 9.2700405,10.6819755" id="Fill-1806" fill="#87BA6C"></path>
                                <path d="M5.0003205,5.086536 C4.345047,5.9224515 4.397169,7.0759185 5.1063495,7.664433 C5.8092825,8.2479495 6.901881,8.062131 7.556976,7.248171 C8.217426,6.4276065 8.1915435,5.2709265 7.4889675,4.665633 C6.7799655,4.0549845 5.6611275,4.244016 5.0003205,5.086536" id="Fill-1807" fill="#7EA963"></path>
                                <polyline id="Fill-1809" fill="#7EA963" points="1.976709 3.5962395 4.180113 5.4447855 5.17293 4.1742225 2.969526 2.2967595 1.976709 3.5962395"></polyline>
                            </g>
                            <g id="coin" transform="translate(47.557584, 34.158648)">
                                <path d="M4.49819224,3.13714186 C4.10370724,4.46000536 2.80244224,5.23987186 1.59185524,4.87876636 C0.381268242,4.51783936 -0.280431258,3.15267136 0.114053742,1.82980786 C0.508538742,0.506944356 1.80980374,-0.272743644 3.02039074,0.0881833563 C4.23115624,0.449288856 4.89267724,1.81427836 4.49819224,3.13714186" id="Fill-1892" fill="#DB9B47"></path>
                                <path d="M4.49819224,3.13714186 C4.10370724,4.46000536 2.84403274,5.25218836 1.68449674,4.90643386 C0.524960742,4.56067936 -0.0951482582,3.20800636 0.299336742,1.88514286 C0.693821742,0.562279356 1.95349624,-0.229903644 3.11303224,0.115850856 C4.27238974,0.461605356 4.89267724,1.81427836 4.49819224,3.13714186" id="Fill-1893" fill="#F3B64D"></path>
                                <path d="M3.94252174,2.97149386 C3.65245924,3.94414036 2.72622274,4.52658586 1.87352824,4.27240186 C1.02101224,4.01803936 0.564944742,3.02343736 0.855007242,2.05079086 C1.14506974,1.07814436 2.07130624,0.495698856 2.92400074,0.749882856 C3.77651674,1.00424536 4.23258424,1.99866886 3.94252174,2.97149386" id="Fill-1894" fill="#DB9B47"></path>
                            </g>
                            <g id="coin" transform="translate(30.385519, 28.518767)">
                                <path d="M5.2195185,2.4995355 C5.2195185,3.879876 4.0510575,4.999071 2.60967,4.999071 C1.1682825,4.999071 0,3.879876 0,2.4995355 C0,1.1190165 1.1682825,0 2.60967,0 C4.0510575,0 5.2195185,1.1190165 5.2195185,2.4995355" id="Fill-1895" fill="#DB9B47"></path>
                                <path d="M5.2195185,2.4995355 C5.2195185,3.879876 4.1003235,4.999071 2.719983,4.999071 C1.339464,4.999071 0.2204475,3.879876 0.2204475,2.4995355 C0.2204475,1.1190165 1.339464,9.63673585e-14 2.719983,9.63673585e-14 C4.1003235,9.63673585e-14 5.2195185,1.1190165 5.2195185,2.4995355" id="Fill-1896" fill="#F3B64D"></path>
                                <path d="M4.557819,2.4995355 C4.557819,3.5144865 3.734934,4.3373715 2.719983,4.3373715 C1.7048535,4.3373715 0.882147,3.5144865 0.882147,2.4995355 C0.882147,1.4845845 1.7048535,0.6616995 2.719983,0.6616995 C3.734934,0.6616995 4.557819,1.4845845 4.557819,2.4995355" id="Fill-1897" fill="#DB9B47"></path>
                            </g>
                            <g id="coin" transform="translate(73.609237, 45.850245)">
                                <path d="M5.17013144,2.09842494 C5.39236394,3.46073694 4.42221644,4.75289844 3.00331994,4.98423444 C1.58442344,5.21574894 0.253884444,4.29897294 0.0316519442,2.93648244 C-0.190402056,1.57399194 0.779566944,0.282008944 2.19846344,0.050494444 C3.61753844,-0.180841556 4.94789894,0.735934444 5.17013144,2.09842494" id="Fill-1898" fill="#DB9B47"></path>
                                <path d="M5.17013144,2.09842494 C5.39236394,3.46073694 4.47076844,4.74504444 3.11184794,4.96656294 C1.75274894,5.18825994 0.471118944,4.26345144 0.248707944,2.90113944 C0.0264754442,1.53864894 0.948070944,0.254519944 2.30716994,0.032822944 C3.66609044,-0.188874056 4.94789894,0.735934444 5.17013144,2.09842494" id="Fill-1899" fill="#F3B64D"></path>
                                <path d="M4.51860644,2.20463244 C4.68211244,3.20637444 4.00470494,4.15063944 3.00528344,4.31360994 C2.00604044,4.47658044 1.06356044,3.79667394 0.900232944,2.79493194 C0.736726944,1.79318994 1.41431294,0.848746444 2.41355594,0.685775944 C3.41279894,0.522805444 4.35527894,1.20289044 4.51860644,2.20463244" id="Fill-1900" fill="#DB9B47"></path>
                            </g>
                            <g id="Group-29" transform="translate(43.806399, 36.794205)">
                                <polyline id="Fill-1906" fill="#7EA863" points="0 15.2455065 6.2937315 0 12.9300045 3.98769 6.3280035 18.759279 0 15.2455065"></polyline>
                                <path d="M7.4846835,1.5395625 L11.2156905,3.7740255 C10.9882815,4.291497 11.1574995,4.919817 11.5919685,5.1788205 L6.3419265,17.013906 C5.923344,16.779714 5.417832,16.966068 5.214342,17.429097 L1.6427355,15.439536 C1.840692,14.968653 1.6552305,14.3915625 1.2271875,14.151837 L6.2790945,2.012409 C6.724095,2.27766 7.2629865,2.0664945 7.4846835,1.5395625" id="Fill-1907" fill="#86B96C"></path>
                                <path d="M5.405694,11.857398 C4.176543,11.155893 3.578211,9.6188295 4.08051,8.417346 C4.5879855,7.2037245 6.01902,6.803706 7.265307,7.531629 C8.504097,8.254911 9.073512,9.8094675 8.5492575,10.997028 C8.0298225,12.1728075 6.6275265,12.554976 5.405694,11.857398" id="Fill-1908" fill="#7EA863"></path>
                                <path d="M7.687281,6.439923 C7.0212975,6.0488295 6.7064235,5.195778 6.9873825,4.5322935 C7.2697695,3.8654175 8.045352,3.6462195 8.7163335,4.045167 C9.385173,4.442865 9.6916575,5.3012715 9.404451,5.960472 C9.118494,6.6161025 8.351301,6.829767 7.687281,6.439923" id="Fill-1909" fill="#7EA863"></path>
                                <polyline id="Fill-1910" fill="#7EA863" points="2.7708555 15.347787 4.2527625 11.8607895 6.0988095 12.9114405 4.5961965 16.367736 2.7708555 15.347787"></polyline>
                            </g>
                            <g id="Group-24" transform="translate(35.288201, 24.277249)">
                                <path d="M0,18.487959 C3.100545,13.4112405 3.578925,6.5589825 1.1754225,-9.09494702e-13 C4.2063525,0.458745 7.2265725,0.915705 10.236261,1.37088 C11.1846315,8.868237 9.008538,15.6196425 4.614582,19.7804775 C3.0818025,19.351185 1.543668,18.9204645 0,18.487959" id="Fill-1921" fill="#7EA863"></path>
                                <path d="M3.3870375,1.148469 C5.0724345,1.4306775 6.754083,1.7123505 8.43234,1.993488 C8.538369,2.7301575 9.0394185,3.408993 9.595446,3.516807 C9.9622635,9.3025275 8.4103845,14.5525695 5.3694585,18.318384 C5.04084,18.2168175 4.49106,18.520089 4.107999,18.9665175 C3.205503,18.702516 2.301222,18.4378005 1.3949775,18.1725495 C1.709316,17.6823885 1.66719,17.183838 1.3364295,17.0819145 C3.5023485,12.831294 4.003398,7.524489 2.674287,2.2014405 C3.2345985,2.3106825 3.5726775,1.8387285 3.3870375,1.148469" id="Fill-1922" fill="#86B96C"></path>
                                <path d="M5.357856,13.5244095 C4.210815,13.157235 3.5683935,11.696034 3.704232,10.1925285 C3.8479245,8.6774205 4.9510545,7.7135205 6.3919065,8.0905125 C7.8227625,8.4628635 8.806476,10.0804305 8.366652,11.591076 C7.937895,13.0806585 6.4954365,13.8899775 5.357856,13.5244095" id="Fill-1923" fill="#7EA863"></path>
                                <path d="M6.391371,6.671259 C5.608113,6.47241 4.945521,5.614182 4.845204,4.745601 C4.7461365,3.8718435 5.3141235,3.296181 6.1816335,3.465399 C7.046109,3.633903 7.8152655,4.516764 7.829724,5.421045 C7.845789,6.3183645 7.1715945,6.8699295 6.391371,6.671259" id="Fill-1924" fill="#7EA863"></path>
                                <path d="M2.460444,17.7694965 C3.211929,16.5685485 3.8207925,15.2626425 4.2809655,13.8774825 C4.85163,14.060445 5.421402,14.2430505 5.9902815,14.4254775 C5.429256,15.7845765 4.722753,17.0508555 3.8786265,18.198789 C3.406494,18.055989 2.9336475,17.912832 2.460444,17.7694965" id="Fill-1925" fill="#7EA863"></path>
                            </g>
                            <g id="Group-22" transform="translate(49.295095, 15.282813)">
                                <polyline id="Fill-1946" fill="#8BC170" points="14.646282 4.7843355 5.491731 16.4296755 0 12.1485315 9.038526 9.09494702e-13 14.646282 4.7843355"></polyline>
                                <path d="M4.66599,15.054333 L1.5695505,12.6319095 C1.853544,12.2549175 1.7833935,11.7115635 1.4113995,11.419002 L8.641185,1.7551905 C9.0197835,2.075241 9.5792025,1.9975935 9.8926485,1.58151 L13.0492425,4.2641865 C12.7336545,4.670274 12.776673,5.250399 13.1434905,5.560275 L5.839092,14.9010015 C5.478165,14.6171865 4.9521255,14.6860875 4.66599,15.054333" id="Fill-1947" fill="#95C877"></path>
                                <path d="M8.496957,6.8310165 C9.5527845,7.702275 9.805719,9.1690095 9.075297,10.105956 C8.351301,11.034513 6.924372,11.1021645 5.874792,10.2582165 C4.816644,9.4074855 4.529973,7.943964 5.247543,6.987918 C5.9713605,6.0234825 7.432383,5.9524395 8.496957,6.8310165" id="Fill-1948" fill="#8BC170"></path>
                                <path d="M5.2852065,11.09556 C5.845161,11.5430595 5.9913525,12.300078 5.61561,12.7861335 C5.241474,13.270047 4.488918,13.30539 3.930927,12.8653875 C3.3706155,12.4236 3.2149635,11.667474 3.5873145,11.1760635 C3.9610935,10.682511 4.72311,10.6462755 5.2852065,11.09556" id="Fill-1949" fill="#8BC170"></path>
                                <polyline id="Fill-1950" fill="#8BC170" points="11.8922055 4.11978 9.6284685 7.055391 8.027859 5.7300285 10.2835635 2.757825 11.8922055 4.11978"></polyline>
                            </g>
                            <g id="Group-21" transform="translate(72.066519, 13.794302)">
                                <polyline id="Fill-1951" fill="#8BC170" points="16.052148 7.2329985 1.643985 10.6716225 0 3.904866 14.62986 -9.09494702e-13 16.052148 7.2329985"></polyline>
                                <path d="M1.8512235,9.080652 L0.929628,5.2587885 C1.3864095,5.139729 1.6691535,4.670631 1.559376,4.210101 L13.228278,1.1286555 C13.3262745,1.614711 13.812687,1.901382 14.316771,1.770006 L15.1237695,5.833023 C14.624148,5.9552955 14.2976715,6.4365315 14.392455,6.907236 L2.8658175,9.689337 C2.759253,9.2425515 2.304435,8.969982 1.8512235,9.080652" id="Fill-1952" fill="#95C877"></path>
                                <path d="M4.795938,6.3633465 C4.9567665,7.0616385 4.601016,7.7456505 4.004469,7.8930915 C3.410778,8.039997 2.7990585,7.600173 2.6351955,6.908664 C2.47044,6.2144775 2.818158,5.525289 3.4152405,5.371422 C4.0150005,5.2170195 4.6343955,5.6618415 4.795938,6.3633465" id="Fill-1954" fill="#8BC170"></path>
                            </g>
                            <g id="Group-25" transform="translate(24.843808, 9.286998)">
                                <polyline id="Fill-1956" fill="#8BC170" points="0 14.4586785 3.2203185 0 10.0233105 1.4863695 7.125006 16.348458 0 14.4586785"></polyline>
                                <path d="M4.559604,0.883218 L8.3989605,1.7291295 C8.3057835,2.191623 8.6037,2.6512605 9.0658365,2.754255 L6.724452,14.5939815 C6.244644,14.46921 5.773761,14.780871 5.6711235,15.291738 L1.665048,14.2373385 C1.7741115,13.7346825 1.484406,13.2302415 1.019592,13.109397 L3.567858,1.5288525 C4.0160715,1.628634 4.460715,1.339107 4.559604,0.883218" id="Fill-1957" fill="#95C877"></path>
                                <path d="M4.660278,9.9547665 C3.331524,9.625434 2.469369,8.4121695 2.722839,7.251741 C2.974167,6.1013085 4.2316995,5.4233655 5.5429605,5.730564 C6.864753,6.04044 7.756182,7.236033 7.522347,8.4082425 C7.2865485,9.591162 5.999742,10.286598 4.660278,9.9547665" id="Fill-1958" fill="#8BC170"></path>
                                <path d="M5.7125355,4.720611 C5.0142435,4.5594255 4.5551415,3.939852 4.68384,3.3391995 C4.812003,2.741046 5.475309,2.3838675 6.1687815,2.539341 C6.8649315,2.6955285 7.332066,3.310104 7.208901,3.9139695 C7.0852005,4.520691 6.4136835,4.8828675 5.7125355,4.720611" id="Fill-1959" fill="#8BC170"></path>
                                <polyline id="Fill-1960" fill="#8BC170" points="2.770677 13.867308 3.5426895 10.241616 5.559204 10.744629 4.8100395 14.399952 2.770677 13.867308"></polyline>
                            </g>
                            <g id="Group-53" transform="translate(50.199198, 49.813920)">
                                <path d="M16.830765,6.40840341 C10.2996285,5.76169791 9.7030815,15.8758649 3.423987,15.2816384 C2.3028285,13.3543739 1.161678,11.3931944 0,9.39685041 C6.456345,10.0233854 6.9156255,-0.651985585 13.638828,0.0314909147 C14.722323,2.19633891 15.786183,4.32155991 16.830765,6.40840341" id="Fill-1971" fill="#8BC170"></path>
                                <path d="M3.4066725,13.9901909 C2.7954885,12.9336494 2.178414,11.8667549 1.555092,10.7896859 C2.0918415,10.7704079 2.2764105,10.3182674 2.0297235,9.88826091 C6.404937,8.87795091 7.639086,1.86022341 12.197262,0.776192915 C12.435738,1.24582641 13.0335345,1.51161291 13.5936675,1.49072841 C14.182182,2.65883241 14.764806,3.81533391 15.3418965,4.96041141 C14.7899745,4.98076041 14.575239,5.45449941 14.8024695,5.90164191 C10.3317585,6.93854841 9.044238,13.6583594 4.749885,14.6263649 C4.5101595,14.2090319 3.935925,13.9714484 3.4066725,13.9901909" id="Fill-1972" fill="#95C877"></path>
                            </g>
                            <g id="coin" transform="translate(59.659864, 45.086098)">
                                <path d="M3.74387162,1.97774755 C4.11122462,3.30846505 3.59750162,4.61115805 2.59629512,4.88765455 C1.59544562,5.16397255 0.486068122,4.30931455 0.118715122,2.97859705 C-0.248637878,1.64787955 0.265085122,0.345186548 1.26611312,0.0688685479 C2.26731962,-0.207449452 3.37651862,0.647208548 3.74387162,1.97774755" id="Fill-1989" fill="#F3B34D"></path>
                                <path d="M3.74387162,1.97774755 C4.11122462,3.30846505 3.63177362,4.60187605 2.67305012,4.86641305 C1.71432662,5.13112855 0.639399622,4.26701005 0.271868122,2.93629255 C-0.0954848784,1.60557505 0.383966122,0.312342548 1.34286812,0.0476270479 C2.30159162,-0.216909952 3.37651862,0.647208548 3.74387162,1.97774755" id="Fill-1990" fill="#F4DA51"></path>
                                <path d="M3.28441262,2.10466105 C3.55448312,3.08319805 3.20194562,4.03406755 2.49704912,4.22863255 C1.79197412,4.42337605 1.00157612,3.78791605 0.731327122,2.80955755 C0.461256622,1.83102055 0.813794122,0.880151048 1.51869062,0.685586048 C2.22376562,0.490842548 3.01416362,1.12630255 3.28441262,2.10466105" id="Fill-1991" fill="#F3B34D"></path>
                            </g>
                            <g id="coin" transform="translate(70.445863, 35.134250)">
                                <path d="M4.31600601,3.16435288 C3.88100151,4.47454288 2.59437351,5.22656338 1.44251301,4.84403788 C0.290474009,4.46151238 -0.290721991,3.08938288 0.144461009,1.77919288 C0.579287009,0.469181384 1.86591501,-0.282839116 3.01795401,0.0996863844 C4.16999301,0.482211884 4.75101051,1.85434138 4.31600601,3.16435288" id="Fill-1992" fill="#F3B34D"></path>
                                <path d="M4.31600601,3.16435288 C3.88100151,4.47454288 2.63400051,5.23959388 1.53051351,4.87331188 C0.427383509,4.50685138 -0.114363991,3.14793088 0.320640509,1.83774088 C0.755823509,0.527550884 2.00282451,-0.237321616 3.10613301,0.128960384 C4.20926301,0.495242384 4.75101051,1.85434138 4.31600601,3.16435288" id="Fill-1993" fill="#F4DA51"></path>
                                <path d="M3.78728901,2.98888738 C3.46741701,3.95225188 2.55028401,4.51470538 1.73918001,4.24534888 C0.927897509,3.97599238 0.529664009,2.97674938 0.849536009,2.01338488 C1.16922951,1.05002038 2.08636251,0.487566884 2.89764501,0.756923384 C3.70892751,1.02627988 4.10716101,2.02552288 3.78728901,2.98888738" id="Fill-1994" fill="#F3B34D"></path>
                            </g>
                            <g id="coin" transform="translate(40.024519, 15.827417)">
                                <path d="M5.2195185,2.4995355 C5.2195185,3.8800545 4.0510575,4.999071 2.60967,4.999071 C1.1682825,4.999071 0,3.8800545 0,2.4995355 C0,1.1190165 1.1682825,-9.09494702e-13 2.60967,-9.09494702e-13 C4.0510575,-9.09494702e-13 5.2195185,1.1190165 5.2195185,2.4995355" id="Fill-1998" fill="#F3B34D"></path>
                                <path d="M5.2195185,2.4995355 C5.2195185,3.8800545 4.1003235,4.999071 2.719983,4.999071 C1.339464,4.999071 0.2204475,3.8800545 0.2204475,2.4995355 C0.2204475,1.1190165 1.339464,-8.13127343e-13 2.719983,-8.13127343e-13 C4.1003235,-8.13127343e-13 5.2195185,1.1190165 5.2195185,2.4995355" id="Fill-1999" fill="#F4DA51"></path>
                                <path d="M4.557819,2.4995355 C4.557819,3.5144865 3.734934,4.3373715 2.719983,4.3373715 C1.7048535,4.3373715 0.882147,3.5144865 0.882147,2.4995355 C0.882147,1.4845845 1.7048535,0.6616995 2.719983,0.6616995 C3.734934,0.6616995 4.557819,1.4845845 4.557819,2.4995355" id="Fill-2000" fill="#F3B34D"></path>
                            </g>
                            <g id="coin" transform="translate(22.800563, 14.696975)">
                                <path d="M4.3066251,2.26748626 C4.4585286,3.63943726 3.6215421,4.85805676 2.4371946,4.98925426 C1.2528471,5.12027326 0.169709097,4.11442576 0.0178055969,2.74247476 C-0.134097903,1.37034526 0.702710097,0.151725762 1.8872361,0.0207067624 C3.0714051,-0.110490738 4.1547216,0.895356762 4.3066251,2.26748626" id="Fill-2016" fill="#F3B34D"></path>
                                <path d="M4.3066251,2.26748626 C4.4585286,3.63943726 3.6620616,4.85359426 2.5278726,4.97925826 C1.3935051,5.10474376 0.350886597,4.09425526 0.198983097,2.72230426 C0.0470795969,1.35017476 0.843368097,0.136196262 1.9777356,0.0105322624 C3.1119246,-0.114953238 4.1547216,0.895356762 4.3066251,2.26748626" id="Fill-2017" fill="#F4DA51"></path>
                                <path d="M3.7629141,2.32764076 C3.8746551,3.33652276 3.2891751,4.22920126 2.4550446,4.32166426 C1.6209141,4.41394876 0.854256597,3.67103176 0.742694097,2.66214976 C0.630953097,1.65326776 1.2166116,0.760589262 2.0505636,0.668126262 C2.8846941,0.575841762 3.6511731,1.31875876 3.7629141,2.32764076" id="Fill-2018" fill="#F3B34D"></path>
                            </g>
                            <g id="coin" transform="translate(33.127353, 47.659001)">
                                <path d="M4.1439829,2.98751783 C3.8073319,4.32608933 2.6269114,5.18324633 1.5073594,4.90157333 C0.387985903,4.61990033 -0.246403097,3.30631883 0.090247903,1.96774733 C0.427077403,0.628997327 1.6074979,-0.227981173 2.7268714,0.0535133267 C3.8462449,0.335186327 4.4808124,1.64876783 4.1439829,2.98751783" id="Fill-2028" fill="#F3B34D"></path>
                                <path d="M4.1439829,2.98751783 C3.8073319,4.32608933 2.6652889,5.19270683 1.5930394,4.92299333 C0.520968403,4.65345833 -0.075221597,3.34951583 0.261607903,2.01076583 C0.598258903,0.672015827 1.7404804,-0.194601673 2.8125514,0.0751118267 C3.8846224,0.344825327 4.4808124,1.64876783 4.1439829,2.98751783" id="Fill-2029" fill="#F4DA51"></path>
                                <path d="M3.6302599,2.85810533 C3.3826804,3.84253283 2.5426594,4.47977783 1.7544034,4.28146433 C0.966147403,4.08315083 0.527751403,3.12442733 0.775509403,2.13999983 C1.0230889,1.15575083 1.8627529,0.518505827 2.6511874,0.716819327 C3.4394434,0.915132827 3.8778394,1.87385633 3.6302599,2.85810533" id="Fill-2030" fill="#F3B34D"></path>
                            </g>
                        </g>
                    </g>
                </g>
                <rect id="Rectangle" fill="#481608" opacity="0.200000003" x="7.22865014" y="8" width="92.6170799" height="10"></rect>
                <rect id="Rectangle-Copy" fill="#481608" opacity="0.200000003" x="7.22865014" y="22" width="60" height="10"></rect>
            </g>
        </g>
    </g>
</svg>