<?xml version="1.0" encoding="UTF-8"?>
<svg width="63px" height="63px" viewBox="0 0 63 63" version="1.1" xmlns="http://www.w3.org/2000/svg" xmlns:xlink="http://www.w3.org/1999/xlink">
    <!-- Generator: Sketch 55.2 (78181) - https://sketchapp.com -->
    <title>Group 8</title>
    <desc>Created with Sketch.</desc>
    <g id="1-Account-Authentication-" stroke="none" stroke-width="1" fill="none" fill-rule="evenodd">
        <g id="1.1-Sign-in-with-mobile-Copy" transform="translate(-125.000000, -190.000000)">
            <g id="Group-10" transform="translate(7.000000, 124.000000)">
                <g id="Group-8" transform="translate(118.000000, 65.999908)">
                    <g id="Group-9" transform="translate(0.000000, 0.000092)">
                        <ellipse id="Oval" fill-opacity="0.15" fill="#7B4508" cx="32.5" cy="58.5" rx="25.5" ry="4.5"></ellipse>
                        <g id="Group-3-Copy" fill-rule="nonzero">
                            <circle id="Oval" fill="#A86B0E" cx="33.075" cy="29.6294118" r="29.6294118"></circle>
                            <circle id="Oval" fill="#F8CB20" cx="29.5058824" cy="29.5058824" r="29.5058824"></circle>
                            <circle id="Oval" fill="#BA7A0B" cx="29.5058824" cy="29.5058824" r="27.9838235"></circle>
                            <circle id="Oval" fill="#EDA312" cx="29.5058824" cy="29.5058824" r="26.8985294"></circle>
                            <path d="M29.5058824,51.5029412 C17.3779412,51.5029412 7.50882353,41.6338235 7.50882353,29.5058824 C7.50882353,17.3779412 17.3779412,7.50882353 29.5058824,7.50882353 C41.6338235,7.50882353 51.5029412,17.3779412 51.5029412,29.5058824 C51.5029412,41.6338235 41.6382353,51.5029412 29.5058824,51.5029412 Z" id="Path" fill="#F8CB20"></path>
                            <path d="M29.5058824,7.79558824 C17.5367647,7.79558824 7.8,17.5323529 7.8,29.5014706 C7.8,41.4705882 17.5367647,51.2073529 29.5058824,51.2073529 C41.475,51.2073529 51.2117662,41.4705882 51.2117662,29.5014706 C51.2161765,17.5367647 41.4794118,7.79558824 29.5058824,7.79558824 Z" id="Path" fill="#F8CB20"></path>
                            <circle id="Oval" fill="#F8CB20" transform="translate(29.506921, 29.504790) rotate(-76.001277) translate(-29.506921, -29.504790) " cx="29.5069213" cy="29.5047904" r="20.1661533"></circle>
                            <g id="Group" transform="translate(19.001471, 19.041176)" fill="#FFEEA0" fill-opacity="0.5">
                                <path d="M30.2117647,5.99117647 C29.7264706,3.86029412 28.9147059,1.85294118 27.8117647,0.0352941176 L0.075,27.7720588 C1.89264706,28.8705882 3.9,29.6867647 6.03088235,30.1720588 L30.2117647,5.99117647 Z" id="Path"></path>
                            </g>
                            <g id="Group" transform="translate(9.295588, 9.335294)" fill="#FFEEA0" fill-opacity="0.5">
                                <path d="M23.7176471,0.286764706 L0.326470588,23.6779412 C1.16470588,28.4735294 3.68823529,32.6911765 7.275,35.6867647 L35.7264706,7.23529412 C32.7308824,3.64852941 28.5132353,1.125 23.7176471,0.286764706 Z" id="Path"></path>
                            </g>
                            <g id="Group" transform="translate(15.001471, 22.570588)" fill="#3F330E">
                                <g id="SVGID_23_-link">
                                    <g id="Group-2" transform="translate(0.998529, 0.055866)">
                                        <g id="Group-4">
                                            <path d="M20.8397059,5.5294278 L26.0102941,1.92501603 C26.4955882,1.58531015 26.6102941,0.923545444 26.2661765,0.447074856 C25.9220588,-0.0293957321 25.2470588,-0.144101614 24.7573529,0.195604268 L17.1073529,5.5294278 L24.7573529,10.8632513 C25.2426471,11.2029572 25.9176471,11.0882513 26.2661765,10.6117807 C26.6102941,10.1353102 26.4955882,9.47354544 26.0102941,9.13383956 L20.8397059,5.5294278 Z" id="SVGID_23_"></path>
                                            <path d="M3.73235294,5.5294278 L8.90294118,1.92501603 C9.38823529,1.58531015 9.50294118,0.923545444 9.15882353,0.447074856 C8.81470588,-0.0293957321 8.13970588,-0.144101614 7.65,0.195604268 L5.59552404e-14,5.5294278 L7.65,10.8632513 C8.13529412,11.2029572 8.81029412,11.0882513 9.15882353,10.6117807 C9.50294118,10.1353102 9.38823529,9.47354544 8.90294118,9.13383956 L3.73235294,5.5294278 Z" id="SVGID_23_-Copy" transform="translate(4.678657, 5.529428) rotate(-180.000000) translate(-4.678657, -5.529428) "></path>
                                        </g>
                                    </g>
                                </g>
                            </g>
                        </g>
                    </g>
                    <path d="M21.1538462,40.7932308 C20.8584615,40.7932308 20.5635385,40.6806154 20.3378462,40.4553846 C19.8873846,40.0049231 19.8873846,39.2743077 20.3378462,38.8233846 C22.8033846,36.3578462 26.0789231,35 29.5612308,35 C33.0435385,35 36.3190769,36.3578462 38.7846154,38.8233846 C39.2355385,39.2743077 39.2355385,40.0044615 38.7846154,40.4553846 C38.3341538,40.9058462 37.604,40.9058462 37.1530769,40.4553846 C35.1232308,38.4255385 32.4273846,37.3076923 29.5612308,37.3076923 C26.6955385,37.3076923 23.9992308,38.4255385 21.9698462,40.4553846 C21.7441538,40.6806154 21.4492308,40.7932308 21.1538462,40.7932308" id="Fill-1" fill="#FB5B58"></path>
                </g>
            </g>
        </g>
    </g>
</svg>