<?xml version="1.0" encoding="UTF-8"?>
<svg width="64px" height="60px" viewBox="0 0 64 60" version="1.1" xmlns="http://www.w3.org/2000/svg" xmlns:xlink="http://www.w3.org/1999/xlink">
    <!-- Generator: Sketch 55.2 (78181) - https://sketchapp.com -->
    <title>Trademarks/Taokae_Icon</title>
    <desc>Created with Sketch.</desc>
    <g id="4-Loan" stroke="none" stroke-width="1" fill="none" fill-rule="evenodd">
        <g id="Loan-Unable-to-Proceed" transform="translate(-148.000000, -88.000000)">
            <g id="Trademarks/Taokae_Icon" transform="translate(148.000000, 88.000000)">
                <g id="Group-3-Copy">
                    <ellipse id="Oval" fill="#A86B0E" fill-rule="nonzero" cx="33.32" cy="29.6294118" rx="29.8488889" ry="29.6294118"></ellipse>
                    <ellipse id="Oval" fill="#F8CB20" fill-rule="nonzero" cx="29.7244444" cy="29.5058824" rx="29.7244444" ry="29.5058824"></ellipse>
                    <ellipse id="Oval" fill="#BA7A0B" fill-rule="nonzero" cx="29.7244444" cy="29.5058824" rx="28.1911111" ry="27.9838235"></ellipse>
                    <ellipse id="Oval" fill="#EDA312" fill-rule="nonzero" cx="29.7244444" cy="29.5058824" rx="27.0977778" ry="26.8985294"></ellipse>
                    <path d="M29.7244444,51.5029412 C17.5066667,51.5029412 7.56444444,41.6338235 7.56444444,29.5058824 C7.56444444,17.3779412 17.5066667,7.50882353 29.7244444,7.50882353 C41.9422222,7.50882353 51.8844444,17.3779412 51.8844444,29.5058824 C51.8844444,41.6338235 41.9466667,51.5029412 29.7244444,51.5029412 Z" id="Path" fill="#F8CB20" fill-rule="nonzero"></path>
                    <path d="M29.7244444,7.79558824 C17.6666667,7.79558824 7.85777778,17.5323529 7.85777778,29.5014706 C7.85777778,41.4705882 17.6666667,51.2073529 29.7244444,51.2073529 C41.7822222,51.2073529 51.5911126,41.4705882 51.5911126,29.5014706 C51.5955556,17.5367647 41.7866667,7.79558824 29.7244444,7.79558824 Z" id="Path" fill="#F8CB20" fill-rule="nonzero"></path>
                    <ellipse id="Oval" fill="#F8CB20" fill-rule="nonzero" transform="translate(29.725491, 29.504790) rotate(-76.001277) translate(-29.725491, -29.504790) " cx="29.7254911" cy="29.5047904" rx="20.1749254" ry="20.3068221"></ellipse>
                    <g id="Group" transform="translate(19.142222, 19.041176)" fill="#FFEEA0" fill-opacity="0.5" fill-rule="nonzero">
                        <path d="M30.4355556,5.99117647 C29.9466667,3.86029412 29.1288889,1.85294118 28.0177778,0.0352941176 L0.0755555556,27.7720588 C1.90666667,28.8705882 3.92888889,29.6867647 6.07555556,30.1720588 L30.4355556,5.99117647 Z" id="Path"></path>
                    </g>
                    <g id="Group" transform="translate(9.364444, 9.335294)" fill="#FFEEA0" fill-opacity="0.5" fill-rule="nonzero">
                        <path d="M23.8933333,0.286764706 L0.328888889,23.6779412 C1.17333333,28.4735294 3.71555556,32.6911765 7.32888889,35.6867647 L35.9911111,7.23529412 C32.9733333,3.64852941 28.7244444,1.125 23.8933333,0.286764706 Z" id="Path"></path>
                    </g>
                    <path d="M34.1288889,39.3882353 C35.5244444,38.4308824 36.5911111,37.0367647 37.12,35.3955882 L22.3333333,35.3955882 C22.8622222,37.0323529 23.9288889,38.4308824 25.3244444,39.3882353 C26.5777778,38.5323529 28.0888889,38.025 29.7244444,38.025 C31.36,38.025 32.8755556,38.5323529 34.1288889,39.3882353 Z" id="Path" fill="#3F330E" fill-rule="nonzero"></path>
                    <path d="M34.1288889,39.3882353 C32.8755556,38.5323529 31.3644444,38.025 29.7288889,38.025 C28.0933333,38.025 26.5777778,38.5279412 25.3288889,39.3882353 C26.5777778,40.2485294 28.0933333,40.7558824 29.7288889,40.7558824 C31.3644444,40.7558824 32.8755556,40.2485294 34.1288889,39.3882353 Z" id="Path" fill="#FB5B58" fill-rule="nonzero"></path>
                    <g id="Group" transform="translate(34.253333, 22.570588)" fill="#3F330E" fill-rule="nonzero">
                        <g id="SVGID_23_-link">
                            <path d="M3.86666667,5.58529412 L9.07555556,1.98088235 C9.56444444,1.64117647 9.68,0.979411765 9.33333333,0.502941176 C8.98666667,0.0264705882 8.30666667,-0.0882352941 7.81333333,0.251470588 L0.106666667,5.58529412 L7.81333333,10.9191176 C8.30222222,11.2588235 8.98222222,11.1441176 9.33333333,10.6676471 C9.68,10.1911765 9.56444444,9.52941176 9.07555556,9.18970588 L3.86666667,5.58529412 Z" id="SVGID_23_"></path>
                        </g>
                    </g>
                    <g id="Group" transform="translate(14.253333, 22.570588)" fill-rule="nonzero">
                        <path d="M11.6222222,4.22647059 C11.3644444,4.22647059 11.1022222,4.12941176 10.9066667,3.93088235 C8.48888889,1.53088235 4.55111111,1.53088235 2.13333333,3.93088235 C1.73777778,4.32352941 1.09777778,4.32352941 0.702222222,3.93088235 C0.306666667,3.53823529 0.306666667,2.90294118 0.702222222,2.51029412 C3.91111111,-0.675 9.13333333,-0.675 12.3422222,2.51029412 C12.7377778,2.90294118 12.7377778,3.53823529 12.3422222,3.93088235 C12.1377778,4.12941176 11.88,4.22647059 11.6222222,4.22647059 Z" id="Path" fill="#3F330E"></path>
                        <g transform="translate(4.000000, 1.323529)" id="Path">
                            <path d="M3.03111111,4.57941176 C3.03111111,3.75 3.71111111,3.075 4.54666667,3.075 C4.61333333,3.075 4.68,3.08823529 4.74666667,3.09705882 C4.4,1.54411765 3.53333333,0.436764706 2.51555556,0.436764706 C1.19555556,0.436764706 0.124444444,2.29411765 0.124444444,4.58382353 C0.124444444,6.87352941 1.19555556,8.73088235 2.51555556,8.73088235 C3.53333333,8.73088235 4.4,7.62352941 4.74666667,6.07058824 C4.68,6.07941176 4.61777778,6.09264706 4.54666667,6.09264706 C3.71111111,6.08823529 3.03111111,5.41323529 3.03111111,4.57941176 Z" fill="#3F330E"></path>
                            <path d="M4.74666667,3.09705882 C4.68,3.08823529 4.61777778,3.075 4.54666667,3.075 C3.71111111,3.075 3.03111111,3.75 3.03111111,4.57941176 C3.03111111,5.40882353 3.71111111,6.08382353 4.54666667,6.08382353 C4.61333333,6.08382353 4.68,6.07058824 4.74666667,6.06176471 C4.84888889,5.59852941 4.90666667,5.1 4.90666667,4.575 C4.90666667,4.05882353 4.84888889,3.55588235 4.74666667,3.09705882 Z" fill="#FFFFFF"></path>
                        </g>
                    </g>
                </g>
            </g>
        </g>
    </g>
</svg>